<svg width="21" height="21" viewBox="0 0 21 21" fill="none" xmlns="http://www.w3.org/2000/svg">
<path d="M12.2683 8.34604C13.2442 9.32187 13.2442 10.906 12.2683 11.8835C11.2925 12.8594 9.70834 12.8594 8.73084 11.8835C7.755 10.9077 7.755 9.32354 8.73084 8.34604C9.70834 7.36854 11.2917 7.36854 12.2683 8.34604" stroke="white" stroke-width="1.5" stroke-linecap="round" stroke-linejoin="round"/>
<path fill-rule="evenodd" clip-rule="evenodd" d="M3 10.1128C3 9.56359 3.12667 9.02025 3.37167 8.51942V8.51942C4.63417 5.93859 7.42417 4.27942 10.5 4.27942C13.5758 4.27942 16.3658 5.93859 17.6283 8.51942V8.51942C17.8733 9.02025 18 9.56359 18 10.1128C18 10.6619 17.8733 11.2053 17.6283 11.7061V11.7061C16.3658 14.2869 13.5758 15.9461 10.5 15.9461C7.42417 15.9461 4.63417 14.2869 3.37167 11.7061V11.7061C3.12667 11.2053 3 10.6619 3 10.1128Z" stroke="white" stroke-width="1.5" stroke-linecap="round" stroke-linejoin="round"/>
</svg>
