<svg width="24" height="24" viewBox="0 0 24 24" fill="none" xmlns="http://www.w3.org/2000/svg">
<path d="M5.14286 12V7.49143C5.15625 6.6052 5.34438 5.73032 5.69647 4.91692C6.04856 4.10352 6.55769 3.36759 7.19469 2.7513C7.83169 2.135 8.58403 1.65046 9.40861 1.32542C10.2332 1.00039 11.1138 0.841258 12 0.857146C12.8862 0.841258 13.7668 1.00039 14.5914 1.32542C15.416 1.65046 16.1683 2.135 16.8053 2.7513C17.4423 3.36759 17.9514 4.10352 18.3035 4.91692C18.6556 5.73032 18.8438 6.6052 18.8571 7.49143V12M15.4286 21C16.3379 21 17.21 20.6388 17.8529 19.9958C18.4959 19.3528 18.8571 18.4807 18.8571 17.5714V13.7143M15.4286 21C15.4286 21.5683 15.2028 22.1134 14.8009 22.5152C14.3991 22.9171 13.854 23.1429 13.2857 23.1429H10.7143C10.146 23.1429 9.60093 22.9171 9.19906 22.5152C8.7972 22.1134 8.57143 21.5683 8.57143 21C8.57143 20.4317 8.7972 19.8866 9.19906 19.4848C9.60093 19.0829 10.146 18.8571 10.7143 18.8571H13.2857C13.854 18.8571 14.3991 19.0829 14.8009 19.4848C15.2028 19.8866 15.4286 20.4317 15.4286 21ZM2.57143 9.42857H4.28572C4.51305 9.42857 4.73106 9.51888 4.89181 9.67963C5.05256 9.84037 5.14286 10.0584 5.14286 10.2857V15.4286C5.14286 15.6559 5.05256 15.8739 4.89181 16.0347C4.73106 16.1954 4.51305 16.2857 4.28572 16.2857H2.57143C2.11678 16.2857 1.68074 16.1051 1.35925 15.7836C1.03776 15.4621 0.857147 15.0261 0.857147 14.5714V11.1429C0.857147 10.6882 1.03776 10.2522 1.35925 9.93068C1.68074 9.60919 2.11678 9.42857 2.57143 9.42857ZM21.4286 16.2857H19.7143C19.487 16.2857 19.2689 16.1954 19.1082 16.0347C18.9475 15.8739 18.8571 15.6559 18.8571 15.4286V10.2857C18.8571 10.0584 18.9475 9.84037 19.1082 9.67963C19.2689 9.51888 19.487 9.42857 19.7143 9.42857H21.4286C21.8832 9.42857 22.3193 9.60919 22.6408 9.93068C22.9622 10.2522 23.1429 10.6882 23.1429 11.1429V14.5714C23.1429 15.0261 22.9622 15.4621 22.6408 15.7836C22.3193 16.1051 21.8832 16.2857 21.4286 16.2857Z" stroke="#2B2B2B" stroke-width="2" stroke-linecap="round" stroke-linejoin="round"/>
</svg>
