<svg width="99" height="26" viewBox="0 0 99 26" fill="none" xmlns="http://www.w3.org/2000/svg">
<path d="M12.1958 0.177559H4.56022C4.03763 0.177559 3.5933 0.549829 3.51177 1.0557L0.423576 20.252C0.362154 20.6306 0.661438 20.9722 1.05326 20.9722H4.69862C5.22112 20.9722 5.66544 20.6001 5.74697 20.0932L6.57985 14.9158C6.66029 14.4088 7.10571 14.0366 7.62712 14.0366H10.0443C15.0741 14.0366 17.9769 11.6504 18.7351 6.92163C19.0767 4.85277 18.7496 3.22731 17.7614 2.08892C16.6762 0.838737 14.7514 0.177559 12.1958 0.177559ZM13.0767 7.18875C12.6592 9.87495 10.5657 9.87495 8.54153 9.87495H7.38935L8.19765 4.85833C8.24571 4.55507 8.5136 4.33178 8.82626 4.33178H9.35431C10.7331 4.33178 12.0339 4.33178 12.706 5.10231C13.1069 5.56212 13.2297 6.24513 13.0767 7.18875Z" fill="#283B82"/>
<path d="M35.0199 7.10211H31.3636C31.0521 7.10211 30.7831 7.32543 30.7348 7.62866L30.5732 8.63132L30.3174 8.26786C29.5258 7.14146 27.7606 6.76499 25.9988 6.76499C21.9583 6.76499 18.5072 9.76532 17.8351 13.9741C17.4857 16.0736 17.9825 18.0811 19.1972 19.4811C20.3115 20.7683 21.9058 21.3047 23.8028 21.3047C27.0585 21.3047 28.8638 19.2524 28.8638 19.2524L28.7007 20.2485C28.6392 20.6294 28.9386 20.9709 29.3283 20.9709H32.6217C33.1454 20.9709 33.5875 20.5987 33.6702 20.092L35.6463 7.82235C35.709 7.44469 35.4108 7.10211 35.0199 7.10211ZM29.9232 14.0792C29.5706 16.1272 27.9124 17.5022 25.798 17.5022C24.7362 17.5022 23.8876 17.1682 23.3427 16.5355C22.8023 15.9072 22.5969 15.0129 22.7689 14.0168C23.0982 11.9863 24.7842 10.5666 26.8663 10.5666C27.9048 10.5666 28.7487 10.9048 29.3048 11.5429C29.862 12.1876 30.0828 13.0874 29.9232 14.0792Z" fill="#283B82"/>
<path d="M54.4937 7.10234H50.8194C50.4688 7.10234 50.1394 7.2731 49.9407 7.55886L44.8729 14.8775L42.7249 7.84452C42.5898 7.40442 42.1756 7.10234 41.7067 7.10234H38.096C37.6571 7.10234 37.3524 7.52264 37.492 7.92765L41.5392 19.5722L37.7342 24.8385C37.4349 25.2532 37.7363 25.8237 38.2535 25.8237H41.9233C42.2716 25.8237 42.5977 25.6573 42.7953 25.377L55.0162 8.08209C55.3087 7.66823 55.0085 7.10234 54.4937 7.10234Z" fill="#283B82"/>
<path d="M66.6589 0.177559H59.0222C58.5008 0.177559 58.0564 0.549829 57.9748 1.0557L54.8866 20.252C54.8254 20.6306 55.1245 20.9722 55.5142 20.9722H59.4331C59.797 20.9722 60.1086 20.7118 60.1655 20.3571L61.0418 14.9158C61.1222 14.4088 61.5678 14.0366 62.0892 14.0366H64.5053C69.536 14.0366 72.4379 11.6504 73.197 6.92163C73.5399 4.85277 73.2105 3.22731 72.2224 2.08892C71.1382 0.838737 69.2146 0.177559 66.6589 0.177559ZM67.5399 7.18875C67.1234 9.87495 65.0301 9.87495 63.0046 9.87495H61.8536L62.6631 4.85833C62.7111 4.55507 62.9767 4.33178 63.2905 4.33178H63.8186C65.1964 4.33178 66.4982 4.33178 67.1702 5.10231C67.5711 5.56212 67.6927 6.24513 67.5399 7.18875Z" fill="#469BDB"/>
<path d="M89.4822 7.10211H85.8279C85.5142 7.10211 85.2472 7.32543 85.2004 7.62866L85.0385 8.63132L84.7818 8.26786C83.9902 7.14146 82.2261 6.76499 80.4643 6.76499C76.4236 6.76499 72.9739 9.76532 72.3016 13.9741C71.9533 16.0736 72.4479 18.0811 73.6627 19.4811C74.7792 20.7683 76.3712 21.3047 78.2681 21.3047C81.5238 21.3047 83.3291 19.2524 83.3291 19.2524L83.166 20.2485C83.1048 20.6294 83.4039 20.9709 83.7959 20.9709H87.0884C87.6098 20.9709 88.0542 20.5987 88.1358 20.092L90.113 7.82235C90.1731 7.44469 89.874 7.10211 89.4822 7.10211ZM84.3853 14.0792C84.0347 16.1272 82.3745 17.5022 80.26 17.5022C79.2003 17.5022 78.3496 17.1682 77.8048 16.5355C77.2645 15.9072 77.0612 15.0129 77.231 14.0168C77.5625 11.9863 79.2462 10.5666 81.3286 10.5666C82.3668 10.5666 83.2108 10.9048 83.7668 11.5429C84.3261 12.1876 84.5472 13.0874 84.3853 14.0792Z" fill="#469BDB"/>
<path d="M93.7929 0.70422L90.6588 20.252C90.5975 20.6306 90.8966 20.9722 91.2864 20.9722H94.437C94.9606 20.9722 95.4051 20.6001 95.4855 20.0932L98.5758 0.898119C98.6373 0.519228 98.3382 0.176649 97.9484 0.176649H94.4202C94.1088 0.177563 93.8409 0.401152 93.7929 0.70422Z" fill="#469BDB"/>
</svg>
