<svg width="36" height="36" viewBox="0 0 36 36" fill="none" xmlns="http://www.w3.org/2000/svg">
<path d="M18.0255 0C8.09402 0 0.0435181 8.0505 0.0435181 17.9805C0.0435181 25.599 4.78052 32.106 11.4705 34.7235C11.313 33.3 11.172 31.119 11.532 29.565C11.8605 28.1595 13.641 20.6295 13.641 20.6295C13.641 20.6295 13.1025 19.5495 13.1025 17.958C13.1025 15.4635 14.553 13.5915 16.3545 13.5915C17.8905 13.5915 18.6315 14.745 18.6315 16.1235C18.6315 17.667 17.652 19.974 17.1435 22.1115C16.716 23.901 18.0435 25.359 19.806 25.359C22.998 25.359 25.458 21.9915 25.458 17.1285C25.458 12.837 22.3635 9.825 17.946 9.825C12.831 9.825 9.83252 13.668 9.83252 17.6235C9.83252 19.173 10.4235 20.838 11.166 21.735C11.3145 21.915 11.334 22.0725 11.2935 22.2525C11.1585 22.815 10.854 24.051 10.7925 24.297C10.713 24.6345 10.5345 24.7035 10.191 24.5445C7.94852 23.5095 6.54152 20.2275 6.54152 17.5755C6.54152 11.9115 10.6635 6.6975 18.4215 6.6975C24.6585 6.6975 29.5095 11.148 29.5095 17.082C29.5095 23.2845 25.599 28.275 20.16 28.275C18.339 28.275 16.629 27.3315 16.023 26.2065L14.8995 30.4785C14.496 32.046 13.3935 34.0065 12.6525 35.1975C14.337 35.715 16.1115 36 17.9775 36C27.888 36 35.955 27.9525 35.955 18.0195C35.955 8.085 27.888 0.039 17.9775 0.039L18.0255 0Z" fill="#E6E6E6"/>
</svg>
