<svg width="32" height="36" viewBox="0 0 32 36" fill="none" xmlns="http://www.w3.org/2000/svg">
<path d="M16.7876 0.03C18.7526 0 20.7026 0.015 22.6526 0C22.7726 2.295 23.5976 4.635 25.2776 6.255C26.9576 7.92 29.3276 8.685 31.6376 8.94V14.985C29.4776 14.91 27.3026 14.46 25.3376 13.53C24.4826 13.14 23.6876 12.645 22.9076 12.135C22.8926 16.515 22.9226 20.895 22.8776 25.26C22.7576 27.36 22.0676 29.445 20.8526 31.17C18.8876 34.05 15.4826 35.925 11.9876 35.985C9.84256 36.105 7.69756 35.52 5.86756 34.44C2.83756 32.655 0.707559 29.385 0.392559 25.875C0.362559 25.125 0.347559 24.375 0.377559 23.64C0.647559 20.79 2.05756 18.06 4.24756 16.2C6.73756 14.04 10.2176 13.005 13.4726 13.62C13.5026 15.84 13.4126 18.06 13.4126 20.28C11.9276 19.8 10.1876 19.935 8.88256 20.835C7.93756 21.45 7.21756 22.395 6.84256 23.46C6.52756 24.225 6.61756 25.065 6.63256 25.875C6.99256 28.335 9.36256 30.405 11.8826 30.18C13.5626 30.165 15.1676 29.19 16.0376 27.765C16.3226 27.27 16.6376 26.76 16.6526 26.175C16.8026 23.49 16.7426 20.82 16.7576 18.135C16.7726 12.09 16.7426 6.06 16.7876 0.03Z" fill="#E6E6E6"/>
</svg>
