<svg width="90" height="30" viewBox="0 0 90 30" fill="none" xmlns="http://www.w3.org/2000/svg">
<g clip-path="url(#clip0_253_2458)">
<path d="M58.6071 0.544434C52.2234 0.544434 46.5183 3.82868 46.5183 9.89521C46.5183 16.8531 56.6361 17.3337 56.6361 20.8296C56.6361 22.3016 54.9369 23.619 52.0335 23.619C47.9142 23.619 44.8353 21.7782 44.8353 21.7782L43.5177 27.901C43.5177 27.901 47.0646 29.456 51.7734 29.456C58.7529 29.456 64.2456 26.011 64.2456 19.84C64.2456 12.4872 54.0855 12.021 54.0855 8.77694C54.0855 7.62383 55.4805 6.36087 58.3749 6.36087C61.641 6.36087 64.305 7.69976 64.305 7.69976L65.5947 1.78686C65.5947 1.78686 62.6949 0.544434 58.6062 0.544434H58.6071ZM0.199798 0.991027L0.0449982 1.88332C0.0449982 1.88332 2.7306 2.371 5.1498 3.34458C8.2647 4.46017 8.4861 5.11041 9.0108 7.12722L14.7267 28.9951H22.3893L34.1937 0.991027H26.5491L18.9639 20.0311L15.8688 3.89121C15.5853 2.04409 14.1471 0.990134 12.3876 0.990134H0.200698L0.199798 0.991027ZM37.2681 0.991027L31.2714 28.9951H38.5614L44.5365 0.991027H37.2681ZM77.9265 0.991027C76.1688 0.991027 75.2373 1.9253 74.5542 3.55715L63.8739 28.9951H71.5185L72.9972 24.7552H82.3104L83.2095 28.9951H89.955L84.0708 0.991027H77.9265ZM78.921 8.55722L81.1872 19.0656H75.1167L78.9219 8.55722H78.921Z" fill="#1434CB"/>
</g>
<defs>
<clipPath id="clip0_253_2458">
<rect width="90" height="29" fill="white" transform="translate(0 0.5)"/>
</clipPath>
</defs>
</svg>
