<svg width="22" height="25" viewBox="0 0 22 25" fill="none" xmlns="http://www.w3.org/2000/svg">
<path d="M2.56098 24.5C1.84533 24.5 1.23958 24.2812 0.74375 23.8438C0.247917 23.4062 0 22.8718 0 22.2403V8.00969C0 7.37823 0.247917 6.84375 0.74375 6.40625C1.23958 5.96875 1.84533 5.75 2.56098 5.75H5.3125V5.4375C5.3125 4.14271 5.831 3.03771 6.868 2.1225C7.90524 1.2075 9.15757 0.75 10.625 0.75C12.0924 0.75 13.3448 1.2075 14.382 2.1225C15.419 3.03771 15.9375 4.14271 15.9375 5.4375V5.75H18.689C19.4047 5.75 20.0104 5.96875 20.5063 6.40625C21.0021 6.84375 21.25 7.37823 21.25 8.00969V22.2403C21.25 22.8718 21.0021 23.4062 20.5063 23.8438C20.0104 24.2812 19.4047 24.5 18.689 24.5H2.56098ZM2.56098 22.625H18.689C18.7981 22.625 18.898 22.5849 18.9886 22.5047C19.0795 22.4247 19.125 22.3366 19.125 22.2403V8.00969C19.125 7.91344 19.0795 7.82531 18.9886 7.74531C18.898 7.6651 18.7981 7.625 18.689 7.625H15.9375V10.4375C15.9375 10.7035 15.8357 10.9263 15.6322 11.1056C15.4289 11.2852 15.1765 11.375 14.875 11.375C14.5735 11.375 14.3211 11.2852 14.1178 11.1056C13.9143 10.9263 13.8125 10.7035 13.8125 10.4375V7.625H7.4375V10.4375C7.4375 10.7035 7.33574 10.9263 7.13221 11.1056C6.92892 11.2852 6.67651 11.375 6.375 11.375C6.07349 11.375 5.82108 11.2852 5.61779 11.1056C5.41426 10.9263 5.3125 10.7035 5.3125 10.4375V7.625H2.56098C2.4519 7.625 2.35202 7.6651 2.26135 7.74531C2.17045 7.82531 2.125 7.91344 2.125 8.00969V22.2403C2.125 22.3366 2.17045 22.4247 2.26135 22.5047C2.35202 22.5849 2.4519 22.625 2.56098 22.625ZM7.4375 5.75H13.8125V5.4375C13.8125 4.65396 13.5033 3.98927 12.8849 3.44344C12.2666 2.89781 11.5133 2.625 10.625 2.625C9.73675 2.625 8.98344 2.89781 8.36506 3.44344C7.74669 3.98927 7.4375 4.65396 7.4375 5.4375V5.75Z" fill="black"/>
</svg>
