<svg width="70" height="48" viewBox="0 0 70 48" fill="none" xmlns="http://www.w3.org/2000/svg">
<path d="M45.8151 30.9536L31.4219 5.93924L41.762 0L59.66 30.9536H45.8151Z" fill="#F3F3F3"/>
<path d="M7.47656 27.4488L17.8167 21.4695L23.2878 30.9535H9.48306L7.47656 27.4488Z" fill="#F3F3F3"/>
<path d="M27.7695 46.9119H30.7124V35.0067H27.7695V46.9119Z" fill="#F3F3F3"/>
<path d="M64.6509 47.1928C61.3602 47.1928 59.3804 45.494 59.2734 43.0995H62.3768C62.3768 43.8486 62.845 44.9455 64.8515 44.9857C66.1892 44.9857 66.8179 44.1964 66.8179 43.6079C66.7376 42.6715 65.5605 42.5912 64.3031 42.3906C63.0457 42.1899 61.9755 41.9625 61.1997 41.5612C60.2098 41.0529 59.541 39.956 59.541 38.6986C59.541 36.5717 61.3869 34.8863 64.4636 34.8863C67.4466 34.8863 69.3327 36.4514 69.5333 38.7789H66.537C66.5102 38.1502 66.3898 37.1603 64.6241 37.1603C63.4336 37.1603 62.6444 37.4011 62.5775 38.2305C62.5775 39.4477 65.0522 39.3675 66.9784 39.8758C68.8244 40.344 70.0015 41.4944 70.0015 43.0995C70.0015 46.0558 67.6071 47.1928 64.6509 47.1928Z" fill="#F3F3F3"/>
<path d="M19.5977 16.8278L29.9378 10.8618L41.5354 30.9535H30.7136V33.8964H27.7708V30.9401L19.5977 16.8278Z" fill="#F3F3F3"/>
<path fill-rule="evenodd" clip-rule="evenodd" d="M19.863 47.1928C16.4386 47.1928 13.6562 44.3971 13.6562 41.0128C13.6562 37.5884 16.4386 34.8863 19.863 34.8863C21.1606 34.8863 22.3377 35.2341 23.3677 35.943V30.9536H26.3106V46.9119H23.3677V46.1227C22.3377 46.7915 21.1606 47.1928 19.863 47.1928ZM16.4787 41.0128C16.4787 42.8588 18.0572 44.3971 19.9433 44.3971C21.7893 44.3971 23.3677 42.8588 23.3677 41.0128C23.3677 39.1668 21.7893 37.5884 19.9433 37.5884C18.0572 37.5884 16.4787 39.1668 16.4787 41.0128Z" fill="#F3F3F3"/>
<path fill-rule="evenodd" clip-rule="evenodd" d="M41.6138 30.9536H44.5165V46.9119H41.6138V46.1227C40.6239 46.7915 39.4066 47.1928 38.069 47.1928C34.6847 47.1928 31.9023 44.3971 31.9023 41.0128C31.9023 37.5884 34.6847 34.8863 38.069 34.8863C39.4066 34.8863 40.5838 35.2341 41.6138 35.943V30.9536ZM34.7649 41.0128C34.7649 42.8588 36.3434 44.3971 38.1492 44.3971C40.0353 44.3971 41.6138 42.8588 41.6138 41.0128C41.6138 39.1668 40.0353 37.5884 38.1492 37.5884C36.3434 37.5884 34.7649 39.1668 34.7649 41.0128Z" fill="#F3F3F3"/>
<path fill-rule="evenodd" clip-rule="evenodd" d="M51.6744 47.1928C48.3035 47.1928 45.5078 44.3971 45.5078 41.0128C45.5078 37.5884 48.3035 34.8863 51.6744 34.8863C52.972 34.8863 54.1893 35.2341 55.1791 35.943V34.9933H58.122V46.9119H55.1791V46.1227C54.1893 46.7915 53.0121 47.1928 51.6744 47.1928ZM48.3704 41.0128C48.3704 42.8588 49.9489 44.3971 51.7948 44.3971C53.6408 44.3971 55.1791 42.8588 55.1791 41.0128C55.1791 39.1668 53.6408 37.5884 51.7948 37.5884C49.9489 37.5884 48.3704 39.1668 48.3704 41.0128Z" fill="#F3F3F3"/>
<path fill-rule="evenodd" clip-rule="evenodd" d="M2.83585 41.0128C2.83585 42.8588 4.41429 44.3971 6.26027 44.3971C8.14638 44.3971 9.72482 42.8588 9.72482 41.0128C9.72482 39.1668 8.14638 37.5884 6.26027 37.5884C4.41429 37.5884 2.83585 39.1668 2.83585 41.0128ZM6.18001 47.1928C2.79572 47.1928 0 44.3971 0 41.0128C0 37.5884 2.79572 34.8863 6.18001 34.8863C7.47754 34.8863 8.69482 35.2341 9.72482 35.943V34.9933H12.6276V46.9119H9.72482V46.1227C8.73495 46.7915 7.51767 47.1928 6.18001 47.1928Z" fill="#F3F3F3"/>
</svg>
