<svg width="13" height="16" viewBox="0 0 13 16" fill="none" xmlns="http://www.w3.org/2000/svg">
<path d="M10.869 8.72196C10.8901 10.992 12.8604 11.7473 12.8822 11.757C12.8655 11.8102 12.5674 12.8334 11.8441 13.8904C11.2189 14.8042 10.5701 15.7145 9.54792 15.7334C8.54355 15.7519 8.22059 15.1378 7.0723 15.1378C5.92436 15.1378 5.56554 15.7146 4.61479 15.7519C3.62814 15.7893 2.8768 14.7638 2.24643 13.8534C0.958309 11.9911 -0.0260853 8.59101 1.29571 6.29589C1.95234 5.15612 3.12581 4.43437 4.39949 4.41586C5.36835 4.39738 6.28281 5.06768 6.87512 5.06768C7.46704 5.06768 8.57831 4.26159 9.74658 4.37997C10.2357 4.40033 11.6085 4.57753 12.49 5.86788C12.419 5.91191 10.852 6.82417 10.869 8.72196ZM8.98139 3.1479C9.5052 2.51385 9.85776 1.63118 9.76158 0.75293C9.00654 0.783276 8.09352 1.25607 7.55195 1.88978C7.0666 2.45096 6.64153 3.34916 6.75622 4.21003C7.5978 4.27514 8.45754 3.78237 8.98139 3.1479Z" fill="#141511"/>
</svg>
