<svg width="124" height="18" viewBox="0 0 124 18" fill="none" xmlns="http://www.w3.org/2000/svg">
<path d="M92.261 16.7689L88.4556 10.0927C90.1412 9.28556 91.2146 7.5837 91.2164 5.71485C91.2164 3.02847 89.0301 0.842778 86.3435 0.842778H78.2046V16.7683H81.8241V10.5869H84.7047L88.2279 16.7689H92.261ZM81.7646 7.51261V3.92474H85.6653L85.6503 3.93087C86.8377 3.99461 87.5943 4.68283 87.5943 5.72221C87.5943 6.75024 86.7838 7.47063 85.5756 7.51353H81.7646V7.51261ZM63.4236 16.7689V0.842778H75.3228V3.88154H67.1408V7.06769H74.3147V10.1742H67.1408V13.5714H75.7275V16.7689H63.4236ZM46.4522 16.7689L42.6468 10.0927C44.3321 9.28556 45.4055 7.5834 45.407 5.71485C45.407 3.02847 43.2213 0.842778 40.535 0.842778H32.3955V16.7683H36.0153V10.5869H38.8968L42.4194 16.7689H46.4522ZM35.9549 7.51261V3.92474H39.8562L39.8409 3.93087C41.0283 3.99461 41.7855 4.68283 41.7855 5.72221C41.7855 6.75024 40.9747 7.47063 39.7662 7.51353H35.9549V7.51261ZM22.7501 17.1615C27.1046 17.1615 29.7052 14.6577 29.7052 10.4647V0.854425H25.9883V10.2162C25.9883 12.4834 24.808 13.7838 22.7504 13.7838H22.7482C20.6906 13.7838 19.5109 12.4837 19.5109 10.2162V0.854425H15.7925V10.4653C15.7925 14.658 18.3931 17.1618 22.7482 17.1618H22.7501V17.1615ZM10.9312 7.94834C13.0761 8.67977 14.1216 10.5045 14.1216 12.264C14.1216 14.7429 12.1087 16.761 9.63194 16.7689H0.839844V0.841553H8.93759C11.0455 0.861164 12.7449 2.57436 12.7473 4.68252C12.7501 6.01238 12.0625 7.24848 10.9312 7.94773V7.94834ZM4.48869 13.7973H8.55242C9.82989 13.7973 10.4982 12.8446 10.4982 11.9027C10.4982 11.144 9.89485 10.0758 8.55242 10.0758H4.48869V13.7973ZM7.46433 7.10508C8.40013 7.10508 9.13431 6.38223 9.13431 5.4593C9.13431 4.567 8.36826 3.81352 7.46371 3.81352H4.48869V7.10508H7.46433Z" fill="#F3F3F3"/>
<path d="M58.2355 7.94529C60.3805 8.6761 61.426 10.5014 61.426 12.2609C61.426 14.7401 59.4131 16.7573 56.9363 16.7659L48.1445 16.7653V0.8385L56.2411 0.838196C58.3495 0.858113 60.0489 2.57161 60.0514 4.68008C60.0538 6.00994 59.3665 7.24573 58.2352 7.94467L58.2355 7.94529ZM51.7931 13.7942H55.8565C57.134 13.7942 57.8023 12.8416 57.8023 11.8996C57.8023 11.1412 57.1983 10.0728 55.8565 10.0728H51.7931V13.7942ZM54.7678 7.10202C55.7048 7.10202 56.439 6.37918 56.439 5.45624C56.439 4.56395 55.673 3.81046 54.7678 3.81046H51.7931V7.10202H54.7678Z" fill="#F3F3F3"/>
<path d="M108.013 16.7689L104.208 10.0927C105.893 9.28555 106.966 7.58339 106.968 5.71485C106.968 3.02847 104.783 0.842773 102.096 0.842773H93.957V16.7683H97.5768V10.5869H100.458L103.981 16.7689H108.014H108.013ZM97.5161 7.51261V3.92474H101.417L101.402 3.93087C102.589 3.99461 103.347 4.68283 103.347 5.7222C103.347 6.75024 102.536 7.47063 101.327 7.51353H97.5161V7.51261ZM113.302 16.7689V10.2793L106.984 0.842773H111.625L115.262 6.31818L118.915 0.842773H123.556L117.223 10.2793V16.7689H113.302Z" fill="#F3F3F3"/>
</svg>
