<svg width="70" height="45" viewBox="0 0 70 45" fill="none" xmlns="http://www.w3.org/2000/svg">
<path fill-rule="evenodd" clip-rule="evenodd" d="M10.0952 41.854C10.0866 41.8707 10.0699 41.9041 10.0617 41.9294C9.15768 43.6371 7.38269 44.8005 5.35689 44.8005C2.41856 44.8005 0.0078125 42.3392 0.0078125 39.3005C0.0078125 36.2786 2.41856 33.8005 5.35689 33.8005C7.39125 33.8005 9.17441 34.9892 10.0699 36.7222C10.0951 36.7556 10.1033 36.7724 10.1286 36.8225C10.1372 36.8311 8.42089 38.0699 8.40417 38.045C8.39561 38.0116 8.38744 37.9863 8.37072 37.9695C7.87652 36.7389 6.70498 35.9185 5.35689 35.9438C3.55702 35.9605 2.07523 37.4505 2.07523 39.3005C2.07523 41.1673 3.55702 42.6744 5.35689 42.6744C6.66297 42.6744 7.80147 41.8707 8.32015 40.7322C8.34544 40.6902 8.354 40.6568 8.37072 40.6233L10.0952 41.854Z" fill="#F3F3F3"/>
<path fill-rule="evenodd" clip-rule="evenodd" d="M12.3125 33.9012H14.3717V37.7436H19.7799V33.9012H21.8559V44.5913H19.7799V39.895H14.3717V44.5913H12.3125V33.9012Z" fill="#F3F3F3"/>
<path fill-rule="evenodd" clip-rule="evenodd" d="M50.9219 44.5913V33.9012H58.3973V36.0608H53.0062V38.1954H57.9872V40.3301H53.0062V42.4648H59.159V44.5913H50.9219Z" fill="#F3F3F3"/>
<path fill-rule="evenodd" clip-rule="evenodd" d="M62.082 44.5913V33.9012H64.1748V42.4648H69.9847V44.5913H62.082Z" fill="#F3F3F3"/>
<path fill-rule="evenodd" clip-rule="evenodd" d="M39.6865 44.5913H39.6196H37.5938V33.9012H37.7443H40.4983L45.0776 40.3301V33.9012H47.1536V44.5913H45.496L39.6865 36.5297V44.5913Z" fill="#F3F3F3"/>
<path fill-rule="evenodd" clip-rule="evenodd" d="M29.7182 36.0608L27.8935 40.3301H31.627L29.7182 36.0608ZM26.9556 42.4648L26.0014 44.5913H23.5234L28.2617 33.9012H31.1581L35.9297 44.5913H33.4518L32.4894 42.4648H26.9556Z" fill="#F3F3F3"/>
<path fill-rule="evenodd" clip-rule="evenodd" d="M36.072 29.784C33.8267 31.0823 31.1407 31.854 28.2788 31.854C22.4232 31.854 17.2945 28.6617 14.5206 23.9282C14.5206 23.9062 14.4991 23.9062 14.4991 23.8842C14.4991 23.8622 14.4766 23.8622 14.4766 23.8402L16.722 22.6739L18.9673 21.5284C18.9898 21.5515 19.0123 21.5724 19.0338 21.6174C20.9488 24.7207 24.3832 26.7907 28.2788 26.7907C29.5345 26.7907 30.745 26.5708 31.8237 26.218C29.424 23.4664 27.9711 19.8564 27.9711 15.9155C27.9711 11.9976 29.4025 8.38753 31.7798 5.61297C30.701 5.23919 29.512 5.04131 28.2788 5.04131C24.4272 5.04131 20.8609 7.11018 18.9019 10.4344C18.8793 10.4564 18.8793 10.4794 18.8793 10.5004L14.3672 8.16766C14.3887 8.12368 14.4112 8.07971 14.4326 8.05667C17.1851 3.23628 22.3793 0 28.2788 0C31.1407 0 33.8267 0.770593 36.072 2.09191C38.3173 0.770593 41.0034 0 43.8642 0C49.7639 0 54.9591 3.23628 57.7106 8.05667C57.7326 8.07971 57.7546 8.12368 57.7766 8.16766L53.264 10.5004C53.264 10.4794 53.264 10.4564 53.242 10.4344C51.2831 7.11018 47.717 5.04131 43.8642 5.04131C42.6321 5.04131 41.4431 5.23919 40.3643 5.61297C42.7415 8.38753 44.173 11.9976 44.173 15.9155C44.173 19.8564 42.7201 23.4664 40.3204 26.218C41.3991 26.5708 42.6096 26.7907 43.8642 26.7907C47.761 26.7907 51.1951 24.7207 53.1101 21.6174C53.1321 21.5724 53.1541 21.5515 53.1761 21.5284L55.4208 22.6739L57.6667 23.8402C57.6667 23.8622 57.6447 23.8622 57.6447 23.8842C57.6447 23.9062 57.6227 23.9062 57.6227 23.9282C54.8492 28.6617 49.7199 31.854 43.8642 31.854C41.0034 31.854 38.3173 31.0823 36.072 29.784ZM36.072 23.4664C34.2224 21.5075 33.0343 18.8439 33.0343 15.9155C33.0343 13.032 34.157 10.4124 36.072 8.45349C37.9871 10.4124 39.1098 13.032 39.1098 15.9155C39.1098 18.8439 37.9206 21.5075 36.072 23.4664Z" fill="#F3F3F3"/>
</svg>
