<svg width="190" height="200" viewBox="0 0 190 200" fill="none" xmlns="http://www.w3.org/2000/svg">
<path d="M182.24 200H7.58077C3.65709 200 0.476562 196.815 0.476562 192.886V47.212C0.476562 43.2829 3.65709 40.0979 7.58077 40.0979H182.24C186.163 40.0979 189.344 43.2829 189.344 47.212V192.886C189.344 196.815 186.163 200 182.24 200Z" fill="url(#paint0_linear_757_18533)"/>
<path d="M189.342 47.2115V192.886C189.342 196.813 186.161 199.999 182.24 199.999H159.057L44.6367 85.4193V40.0984H182.24C186.161 40.0984 189.342 43.2844 189.342 47.2115Z" fill="url(#paint1_linear_757_18533)"/>
<path d="M182.238 40.0979H132.613C136.537 40.0979 139.717 43.2829 139.717 47.212V192.886C139.717 196.815 136.537 200 132.613 200H182.238C186.161 200 189.342 196.815 189.342 192.886V47.212C189.342 43.2829 186.161 40.0979 182.238 40.0979Z" fill="url(#paint2_linear_757_18533)"/>
<path d="M0.476562 161.432V192.886C0.476562 196.815 3.65709 200 7.58077 200H182.24C186.163 200 189.344 196.815 189.344 192.886V161.432H0.476562Z" fill="url(#paint3_linear_757_18533)"/>
<path d="M51.9286 86.6379L52.0678 86.7229C55.2611 88.6643 59.2762 88.6318 62.4375 86.6384C65.6683 84.6848 69.714 84.6848 72.9448 86.6384C76.1757 88.5921 80.2214 88.5921 83.4522 86.6384H83.4527C84.9502 85.7706 86.6068 85.7512 88.2756 86.0648C90.1787 86.4226 91.9461 84.9938 91.9461 83.0544V41.5446C91.9461 40.162 90.8273 39.0417 89.4468 39.0417H45.933C44.5524 39.0417 43.4336 40.162 43.4336 41.5446V82.9959C43.4336 84.923 45.1842 86.3661 47.0757 86.0113C48.7607 85.6947 50.4331 85.7288 51.9286 86.6379Z" fill="url(#paint4_linear_757_18533)"/>
<path d="M189.261 49.8843V140.556L118.617 71.3396V40.1212H179.512C184.895 40.1212 189.261 44.4937 189.261 49.8843Z" fill="url(#paint5_linear_757_18533)"/>
<path d="M147.983 83.4798C171.003 83.4798 189.664 64.7922 189.664 41.7399C189.664 18.6876 171.003 0 147.983 0C124.962 0 106.301 18.6876 106.301 41.7399C106.301 64.7922 124.962 83.4798 147.983 83.4798Z" fill="url(#paint6_linear_757_18533)"/>
<path d="M106.312 42.249C106.586 65.0654 125.132 83.4799 147.982 83.4799C170.831 83.4799 189.377 65.0654 189.651 42.249H106.312Z" fill="url(#paint7_linear_757_18533)"/>
<path d="M136.367 64.6867L154.603 82.95C174.476 79.7726 189.664 62.5351 189.664 41.7399C189.664 39.9818 189.543 38.2526 189.332 36.5514L176.895 24.0972L136.367 64.6867Z" fill="url(#paint8_linear_757_18533)"/>
<path d="M179.229 30.6758L145.264 64.6877C142.807 67.1483 138.823 67.1483 136.366 64.6877L116.737 45.0313C115.567 43.86 115.567 41.9613 116.737 40.7906L125.335 32.1805C126.504 31.0092 128.4 31.0092 129.57 32.1805L140.152 42.7778C140.518 43.1443 141.111 43.1443 141.477 42.7778L166.396 17.825C167.566 16.6537 169.462 16.6537 170.631 17.825L179.229 26.4351C180.398 27.6059 180.398 29.5045 179.229 30.6758Z" fill="url(#paint9_linear_757_18533)"/>
<path d="M17.7242 160.545H22.2787V175.762C22.2787 176.369 22.771 176.861 23.3782 176.861H31.5662C32.1735 176.861 32.6657 176.369 32.6657 175.762V160.545H37.2202C38.6135 160.545 39.4474 158.996 38.6799 157.833L28.9321 143.064C28.241 142.017 26.7042 142.017 26.0127 143.064L16.2649 157.833C15.4974 158.996 16.3313 160.545 17.7242 160.545Z" fill="#8F0024"/>
<path d="M41.6015 182.054H13.3406C12.9496 182.054 12.6328 182.371 12.6328 182.762V186.911C12.6328 187.302 12.9496 187.618 13.3406 187.618H41.6015C41.9924 187.618 42.3092 187.302 42.3092 186.911V182.762C42.3092 182.371 41.9924 182.054 41.6015 182.054Z" fill="#8F0024"/>
<path d="M160.992 166.103H146.985C146.595 166.103 146.277 165.786 146.277 165.395V161.246C146.277 160.855 146.594 160.539 146.985 160.539H160.992C161.383 160.539 161.7 160.855 161.7 161.246V165.395C161.7 165.786 161.383 166.103 160.992 166.103Z" fill="#8F0024"/>
<path d="M178.797 176.861H146.985C146.595 176.861 146.277 176.544 146.277 176.153V172.004C146.277 171.613 146.594 171.296 146.985 171.296H178.797C179.188 171.296 179.505 171.613 179.505 172.004V176.153C179.505 176.544 179.188 176.861 178.797 176.861Z" fill="#8F0024"/>
<path d="M169.153 187.618H146.985C146.595 187.618 146.277 187.302 146.277 186.911V182.762C146.277 182.371 146.594 182.054 146.985 182.054H169.153C169.544 182.054 169.861 182.371 169.861 182.762V186.911C169.861 187.302 169.544 187.618 169.153 187.618Z" fill="#8F0024"/>
<defs>
<linearGradient id="paint0_linear_757_18533" x1="32.2025" y1="57.2535" x2="183.2" y2="208.041" gradientUnits="userSpaceOnUse">
<stop stop-color="#FEE45A"/>
<stop offset="1" stop-color="#FE860A"/>
</linearGradient>
<linearGradient id="paint1_linear_757_18533" x1="176.547" y1="123.44" x2="-18.057" y2="-14.6292" gradientUnits="userSpaceOnUse">
<stop stop-color="#FE860A" stop-opacity="0"/>
<stop offset="1" stop-color="#FE7701"/>
</linearGradient>
<linearGradient id="paint2_linear_757_18533" x1="195.619" y1="81.3253" x2="76.4845" y2="206.795" gradientUnits="userSpaceOnUse">
<stop stop-color="#FE860A" stop-opacity="0"/>
<stop offset="1" stop-color="#FE7701"/>
</linearGradient>
<linearGradient id="paint3_linear_757_18533" x1="94.9103" y1="173.299" x2="94.9103" y2="207.489" gradientUnits="userSpaceOnUse">
<stop stop-color="#FE860A" stop-opacity="0"/>
<stop offset="1" stop-color="#FE7701"/>
</linearGradient>
<linearGradient id="paint4_linear_757_18533" x1="49.6488" y1="44.3203" x2="103.441" y2="98.0379" gradientUnits="userSpaceOnUse">
<stop stop-color="#EAF6FF"/>
<stop offset="0.2575" stop-color="#DCE8FA"/>
<stop offset="0.7423" stop-color="#B8C4ED"/>
<stop offset="1" stop-color="#A2AEE6"/>
</linearGradient>
<linearGradient id="paint5_linear_757_18533" x1="224.354" y1="137.196" x2="152.721" y2="39.2186" gradientUnits="userSpaceOnUse">
<stop stop-color="#FE860A" stop-opacity="0"/>
<stop offset="1" stop-color="#FE7701"/>
</linearGradient>
<linearGradient id="paint6_linear_757_18533" x1="118.246" y1="11.9621" x2="183.928" y2="77.5524" gradientUnits="userSpaceOnUse">
<stop stop-color="#A2E62E"/>
<stop offset="1" stop-color="#02905D"/>
</linearGradient>
<linearGradient id="paint7_linear_757_18533" x1="147.982" y1="52.4294" x2="147.982" y2="89.0791" gradientUnits="userSpaceOnUse">
<stop stop-color="#02905D" stop-opacity="0"/>
<stop offset="0.4554" stop-color="#028A58" stop-opacity="0.455"/>
<stop offset="1" stop-color="#017B4E"/>
</linearGradient>
<linearGradient id="paint8_linear_757_18533" x1="183.514" y1="71.3132" x2="157.293" y2="45.1284" gradientUnits="userSpaceOnUse">
<stop stop-color="#02905D" stop-opacity="0"/>
<stop offset="0.4554" stop-color="#028A58" stop-opacity="0.455"/>
<stop offset="1" stop-color="#017B4E"/>
</linearGradient>
<linearGradient id="paint9_linear_757_18533" x1="132.844" y1="20.5727" x2="170.933" y2="58.6088" gradientUnits="userSpaceOnUse">
<stop stop-color="#EAF6FF"/>
<stop offset="0.2575" stop-color="#DCE8FA"/>
<stop offset="0.7423" stop-color="#B8C4ED"/>
<stop offset="1" stop-color="#A2AEE6"/>
</linearGradient>
</defs>
</svg>
