<svg width="55" height="56" viewBox="0 0 55 56" fill="none" xmlns="http://www.w3.org/2000/svg">
<g filter="url(#filter0_d_586_4984)">
<rect x="3.5" y="2" width="48" height="48" rx="24" fill="#141511" shape-rendering="crispEdges"/>
<rect x="2.75" y="1.25" width="49.5" height="49.5" rx="24.75" stroke="white" stroke-width="1.5" shape-rendering="crispEdges"/>
<path d="M27.4998 18.4969V22.6653" stroke="white" stroke-width="1.5" stroke-linecap="round" stroke-linejoin="round"/>
<path d="M23.332 30.1684H24.9994" stroke="white" stroke-width="1.5" stroke-linecap="round" stroke-linejoin="round"/>
<path d="M35.0033 24.3326C35.0033 23.4118 34.2568 22.6653 33.336 22.6653H21.6644C20.7436 22.6653 19.9971 23.4118 19.9971 24.3326" stroke="white" stroke-width="1.5" stroke-linecap="round" stroke-linejoin="round"/>
<path fill-rule="evenodd" clip-rule="evenodd" d="M33.336 33.5031H21.8729C20.8369 33.5031 19.9971 32.6633 19.9971 31.6273V23.0821C19.9968 22.6319 20.0881 22.1863 20.2655 21.7724L21.1776 19.6357C21.4725 18.9448 22.1513 18.4967 22.9024 18.4969H32.0971C32.8483 18.4967 33.5271 18.9448 33.822 19.6357L34.739 21.7724C34.9149 22.1866 35.0048 22.6322 35.0033 23.0821V31.8358C35.0033 32.7566 34.2568 33.5031 33.336 33.5031Z" stroke="white" stroke-width="1.5" stroke-linecap="round" stroke-linejoin="round"/>
</g>
<defs>
<filter id="filter0_d_586_4984" x="0" y="0.5" width="55" height="55" filterUnits="userSpaceOnUse" color-interpolation-filters="sRGB">
<feFlood flood-opacity="0" result="BackgroundImageFix"/>
<feColorMatrix in="SourceAlpha" type="matrix" values="0 0 0 0 0 0 0 0 0 0 0 0 0 0 0 0 0 0 127 0" result="hardAlpha"/>
<feOffset dy="2"/>
<feGaussianBlur stdDeviation="1"/>
<feComposite in2="hardAlpha" operator="out"/>
<feColorMatrix type="matrix" values="0 0 0 0 0 0 0 0 0 0 0 0 0 0 0 0 0 0 0.05 0"/>
<feBlend mode="normal" in2="BackgroundImageFix" result="effect1_dropShadow_586_4984"/>
<feBlend mode="normal" in="SourceGraphic" in2="effect1_dropShadow_586_4984" result="shape"/>
</filter>
</defs>
</svg>
