<svg width="40" height="41" viewBox="0 0 40 41" fill="none" xmlns="http://www.w3.org/2000/svg" className="cursor-pointer">
                <rect x="0.5" y="1" width="39" height="39" fill="white"/>
                <rect x="0.5" y="1" width="39" height="39" fill="url(#paint0_linear_855_39061)" fill-opacity="0.05"/>
                <rect x="0.5" y="1" width="39" height="39" stroke="#D6D6D5"/>
                <path d="M27.5 20.5C27.5 20.6658 27.4342 20.8247 27.3169 20.9419C27.1997 21.0592 27.0408 21.125 26.875 21.125H13.125C12.9592 21.125 12.8003 21.0592 12.6831 20.9419C12.5658 20.8247 12.5 20.6658 12.5 20.5C12.5 20.3342 12.5658 20.1753 12.6831 20.0581C12.8003 19.9408 12.9592 19.875 13.125 19.875H26.875C27.0408 19.875 27.1997 19.9408 27.3169 20.0581C27.4342 20.1753 27.5 20.3342 27.5 20.5Z" fill="#141511"/>
                <defs>
                <linearGradient id="paint0_linear_855_39061" x1="20" y1="0.5" x2="20" y2="40.5" gradientUnits="userSpaceOnUse">
                <stop stop-color="#F3F3F3" stop-opacity="0"/>
                <stop offset="1" stop-color="#F3F3F3"/>
                </linearGradient>
                </defs>
                </svg>