<svg width="55" height="56" viewBox="0 0 55 56" fill="none" xmlns="http://www.w3.org/2000/svg">
<g filter="url(#filter0_d_586_4401)">
<rect x="3.5" y="2" width="48" height="48" rx="24" fill="#141511" shape-rendering="crispEdges"/>
<rect x="2.75" y="1.25" width="49.5" height="49.5" rx="24.75" stroke="white" stroke-width="1.5" shape-rendering="crispEdges"/>
<path d="M33.0865 31.2466C33.6024 31.7624 33.6024 32.5983 33.0865 33.1133C32.5707 33.6291 31.7349 33.6291 31.2199 33.1133C30.704 32.5974 30.704 31.7616 31.2199 31.2466C31.7357 30.7308 32.5715 30.7308 33.0865 31.2466" stroke="white" stroke-width="1.5" stroke-linecap="round" stroke-linejoin="round"/>
<path d="M23.9202 31.2465C24.4361 31.7624 24.4361 32.5982 23.9202 33.1132C23.4044 33.629 22.5686 33.629 22.0536 33.1132C21.5386 32.5974 21.5377 31.7615 22.0536 31.2465C22.5694 30.7315 23.4044 30.7307 23.9202 31.2465" stroke="white" stroke-width="1.5" stroke-linecap="round" stroke-linejoin="round"/>
<path d="M25.8337 19.3333H29.167C29.627 19.3333 30.0003 19.7066 30.0003 20.1666V28.4999H19.167" stroke="white" stroke-width="1.5" stroke-linecap="round" stroke-linejoin="round"/>
<path d="M21.667 32.1799H20.0003C19.5403 32.1799 19.167 31.8066 19.167 31.3466V26.8333" stroke="white" stroke-width="1.5" stroke-linecap="round" stroke-linejoin="round"/>
<path d="M30 21.8333H33.6025C33.9433 21.8333 34.25 22.0408 34.3758 22.3574L35.7142 25.7024C35.7925 25.8991 35.8333 26.1091 35.8333 26.3208V31.2774C35.8333 31.7374 35.46 32.1108 35 32.1108H33.4742" stroke="white" stroke-width="1.5" stroke-linecap="round" stroke-linejoin="round"/>
<path d="M30.8336 32.1832H24.3086" stroke="white" stroke-width="1.5" stroke-linecap="round" stroke-linejoin="round"/>
<path d="M35.8333 27.6666H32.5V24.3333H35.1667" stroke="white" stroke-width="1.5" stroke-linecap="round" stroke-linejoin="round"/>
<path d="M19.167 19.3333H23.3337" stroke="white" stroke-width="1.5" stroke-linecap="round" stroke-linejoin="round"/>
<path d="M19.167 21.8333H21.667" stroke="white" stroke-width="1.5" stroke-linecap="round" stroke-linejoin="round"/>
<path d="M20.0003 24.3333H19.167" stroke="white" stroke-width="1.5" stroke-linecap="round" stroke-linejoin="round"/>
</g>
<defs>
<filter id="filter0_d_586_4401" x="0" y="0.5" width="55" height="55" filterUnits="userSpaceOnUse" color-interpolation-filters="sRGB">
<feFlood flood-opacity="0" result="BackgroundImageFix"/>
<feColorMatrix in="SourceAlpha" type="matrix" values="0 0 0 0 0 0 0 0 0 0 0 0 0 0 0 0 0 0 127 0" result="hardAlpha"/>
<feOffset dy="2"/>
<feGaussianBlur stdDeviation="1"/>
<feComposite in2="hardAlpha" operator="out"/>
<feColorMatrix type="matrix" values="0 0 0 0 0 0 0 0 0 0 0 0 0 0 0 0 0 0 0.05 0"/>
<feBlend mode="normal" in2="BackgroundImageFix" result="effect1_dropShadow_586_4401"/>
<feBlend mode="normal" in="SourceGraphic" in2="effect1_dropShadow_586_4401" result="shape"/>
</filter>
</defs>
</svg>
