<svg width="21" height="20" viewBox="0 0 21 20" fill="none" xmlns="http://www.w3.org/2000/svg">
<path d="M13.2382 9.22621H8.79378C8.33355 9.22621 7.96045 8.85311 7.96045 8.39288V5.83334" stroke="#141511" stroke-width="1.5" stroke-linecap="round" stroke-linejoin="round"/>
<path d="M3 5.83333C3 3.99238 4.49238 2.5 6.33333 2.5H14.6667C16.5076 2.5 18 3.99238 18 5.83333V14.1667C18 16.0076 16.5076 17.5 14.6667 17.5H6.33333C4.49238 17.5 3 16.0076 3 14.1667" stroke="#141511" stroke-width="1.5" stroke-linecap="round" stroke-linejoin="round"/>
<path d="M2.83887 11.6667H4.66666" stroke="#141511" stroke-width="1.5" stroke-linecap="round" stroke-linejoin="round"/>
<path d="M1.99561 9.1742H4.66681" stroke="#141511" stroke-width="1.5" stroke-linecap="round" stroke-linejoin="round"/>
<circle cx="12.5835" cy="13.75" r="1.25" stroke="#141511" stroke-width="1.5" stroke-linecap="round" stroke-linejoin="round"/>
<path d="M6.3335 5.83334H8.34739C9.52773 5.83334 10.6392 6.38907 11.3474 7.33334L12.2482 8.53446C12.4035 8.74145 12.6048 8.90946 12.8362 9.02517L14.5789 9.89649C15.1435 10.1788 15.5002 10.7559 15.5002 11.3872V12.7083C15.5002 13.2836 15.0338 13.75 14.4585 13.75H13.8335" stroke="#141511" stroke-width="1.5" stroke-linecap="round" stroke-linejoin="round"/>
<path d="M11.3335 13.75H6.3335" stroke="#141511" stroke-width="1.5" stroke-linecap="round" stroke-linejoin="round"/>
</svg>
