<svg width="201" height="200" viewBox="0 0 201 200" fill="none" xmlns="http://www.w3.org/2000/svg">
<g clip-path="url(#clip0_474_12753)">
<path d="M59.1724 86.6801L50.4224 49.2191C48.0786 39.2191 39.2505 32.227 28.9771 32.227H23.8599V20.7035H29.0161C44.6802 20.7035 58.0786 31.3285 61.6333 46.602L70.3833 84.0629L59.1724 86.6801Z" fill="url(#paint0_linear_474_12753)"/>
<path d="M29.0161 20.7035H23.8599V32.1879H29.0161C35.1489 32.1879 40.7349 34.6488 44.7583 38.7895H58.7817C53.1177 27.8129 41.7896 20.7035 29.0161 20.7035Z" fill="url(#paint1_linear_474_12753)"/>
<path d="M166.203 183.75H67.4529C55.8904 183.75 46.2029 174.609 45.9686 163.047C45.7342 151.211 55.3045 141.523 67.1014 141.523H165.305V153.008H67.3358C62.1014 153.008 57.6483 157.07 57.4529 162.266C57.2576 167.734 61.6326 172.266 67.1014 172.266H166.203C169.367 172.266 171.945 174.844 171.945 178.008C171.906 181.172 169.367 183.75 166.203 183.75Z" fill="url(#paint2_linear_474_12753)"/>
<path d="M67.4526 183.75H166.164C169.328 183.75 171.906 181.172 171.906 178.008C171.906 174.844 169.328 172.266 166.164 172.266H67.1011C62.5698 172.266 58.7808 169.141 57.7261 164.922H46.0854C47.2573 175.547 56.5151 183.75 67.4526 183.75Z" fill="url(#paint3_linear_474_12753)"/>
<path d="M98.1172 172.266H127.375V183.75H98.1172V172.266Z" fill="url(#paint4_linear_474_12753)"/>
<path d="M88.8193 200C97.794 200 105.069 192.725 105.069 183.75C105.069 174.776 97.794 167.5 88.8193 167.5C79.8447 167.5 72.5693 174.776 72.5693 183.75C72.5693 192.725 79.8447 200 88.8193 200Z" fill="url(#paint5_linear_474_12753)"/>
<path d="M72.5693 183.75C72.5693 192.735 79.835 200 88.8193 200C97.8037 200 105.069 192.735 105.069 183.75C105.069 181.953 104.757 180.235 104.249 178.633H73.3897C72.8818 180.235 72.5693 181.953 72.5693 183.75Z" fill="url(#paint6_linear_474_12753)"/>
<path d="M88.8189 167.461C86.8267 167.461 84.9517 167.813 83.1938 168.477V199.024C84.9517 199.688 86.8267 200.04 88.8189 200.04C97.8032 200.04 105.069 192.774 105.069 183.79C105.069 174.805 97.8032 167.461 88.8189 167.461Z" fill="url(#paint7_linear_474_12753)"/>
<path d="M88.8193 193.008C93.9323 193.008 98.0772 188.863 98.0772 183.75C98.0772 178.638 93.9323 174.493 88.8193 174.493C83.7064 174.493 79.5615 178.638 79.5615 183.75C79.5615 188.863 83.7064 193.008 88.8193 193.008Z" fill="url(#paint8_linear_474_12753)"/>
<path d="M165.929 200C174.904 200 182.179 192.725 182.179 183.75C182.179 174.776 174.904 167.5 165.929 167.5C156.955 167.5 149.679 174.776 149.679 183.75C149.679 192.725 156.955 200 165.929 200Z" fill="url(#paint9_linear_474_12753)"/>
<path d="M149.679 183.75C149.679 192.735 156.945 200 165.929 200C174.914 200 182.179 192.735 182.179 183.75C182.179 181.953 181.867 180.235 181.359 178.633H150.5C149.953 180.235 149.679 181.953 149.679 183.75Z" fill="url(#paint10_linear_474_12753)"/>
<path d="M165.929 167.461C163.937 167.461 162.062 167.813 160.304 168.477V199.024C162.062 199.688 163.937 200.04 165.929 200.04C174.913 200.04 182.179 192.774 182.179 183.79C182.179 174.805 174.913 167.461 165.929 167.461Z" fill="url(#paint11_linear_474_12753)"/>
<path d="M165.929 193.008C171.042 193.008 175.187 188.863 175.187 183.75C175.187 178.638 171.042 174.493 165.929 174.493C160.816 174.493 156.671 178.638 156.671 183.75C156.671 188.863 160.816 193.008 165.929 193.008Z" fill="url(#paint12_linear_474_12753)"/>
<path d="M27.8828 16.2897H11.5156C5.42188 16.2897 0.5 21.2116 0.5 27.3053C0.5 30.6647 2.02344 33.6725 4.40625 35.7038C5.1875 36.3678 6.35937 36.446 7.25781 35.8991C8.19531 35.3522 9.28906 35.0397 10.4609 35.0397C11.6719 35.0397 12.8047 35.3913 13.7812 35.9772C14.6016 36.485 15.5781 36.485 16.3984 35.9772C17.375 35.3913 18.5078 35.0397 19.7188 35.0397C20.9297 35.0397 22.0625 35.3913 23.0391 35.9772C23.8594 36.485 24.8359 36.485 25.6562 35.9772C26.6328 35.3913 27.7656 35.0397 28.9766 35.0397C30.1484 35.0397 31.2422 35.3522 32.1797 35.8991C33.0781 36.446 34.2109 36.3678 35.0312 35.7038C37.4141 33.6725 38.9375 30.6647 38.9375 27.3053C38.8984 21.2116 33.9766 16.2897 27.8828 16.2897Z" fill="url(#paint13_linear_474_12753)"/>
<path d="M36.8672 31.6801C35.5781 30.938 34.0938 30.5473 32.4922 30.5473C30.8125 30.5473 29.25 31.0161 27.9219 31.7973C26.8281 32.4614 25.4219 32.4614 24.3281 31.7973C23 31.0161 21.4375 30.5473 19.7578 30.5473C18.0781 30.5473 16.5156 31.0161 15.1875 31.7973C14.0937 32.4614 12.6875 32.4614 11.5938 31.7973C10.2656 31.0161 8.70313 30.5473 7.02344 30.5473C5.42188 30.5473 3.9375 30.977 2.64844 31.6801C2.33594 31.8755 1.98438 31.9926 1.67188 32.0708C2.33594 33.477 3.3125 34.727 4.48438 35.7426C5.26562 36.4067 6.4375 36.4848 7.33594 35.938C8.27344 35.3911 9.36719 35.0786 10.5391 35.0786C11.75 35.0786 12.8828 35.4301 13.8594 36.0161C14.6797 36.5239 15.6563 36.5239 16.4766 36.0161C17.4531 35.4301 18.5859 35.0786 19.7969 35.0786C21.0078 35.0786 22.1406 35.4301 23.1172 36.0161C23.9375 36.5239 24.9141 36.5239 25.7344 36.0161C26.7109 35.4301 27.8438 35.0786 29.0547 35.0786C30.2266 35.0786 31.3203 35.3911 32.2578 35.938C33.1563 36.4848 34.2891 36.4067 35.1094 35.7426C36.2812 34.727 37.2578 33.477 37.9219 32.0708C37.4922 31.9536 37.1797 31.8364 36.8672 31.6801Z" fill="url(#paint14_linear_474_12753)"/>
<path d="M27.8833 16.2893H18.3911V35.1956C18.8208 35.1175 19.2505 35.0393 19.7192 35.0393C20.9302 35.0393 22.063 35.3909 23.0396 35.9768C23.8599 36.4846 24.8364 36.4846 25.6567 35.9768C26.6333 35.3909 27.7661 35.0393 28.9771 35.0393C30.1489 35.0393 31.2427 35.3518 32.1802 35.8987C33.0786 36.4456 34.2114 36.3675 35.0317 35.7034C37.4146 33.6721 38.938 30.6643 38.938 27.305C38.8989 21.2112 33.977 16.2893 27.8833 16.2893Z" fill="url(#paint15_linear_474_12753)"/>
<path d="M100.07 96.8749H116.047C117.023 96.8749 117.922 96.4842 118.625 95.7811C119.289 95.078 119.679 94.1796 119.64 93.203L119.523 89.1796C119.445 85.6249 116.594 82.8514 113.039 82.8514H102.883C101.125 82.8514 99.4451 83.5546 98.2341 84.8046C96.9841 86.0546 96.3591 87.7342 96.3982 89.5311L96.5154 93.4374C96.5545 95.3514 98.117 96.8749 100.07 96.8749ZM101.594 88.0858C101.945 87.7343 102.414 87.5389 102.883 87.5389H113.039C114.015 87.5389 114.836 88.3202 114.836 89.2968L114.914 92.1874H101.164L101.086 89.3749C101.086 88.9061 101.242 88.4374 101.594 88.0858Z" fill="url(#paint16_linear_474_12753)"/>
<path d="M91.1644 88.8282C90.93 85.4688 88.0784 82.8126 84.68 82.8126H74.5237C72.7268 82.8126 70.969 83.5547 69.7581 84.8829C68.5472 86.211 67.9222 88.0079 68.0393 89.8047L71.6722 138.164C71.9065 141.524 74.7581 144.18 78.1565 144.18H88.3128C90.1097 144.18 91.8675 143.438 93.0784 142.109C94.2893 140.781 94.9143 138.984 94.7972 137.188L91.1644 88.8282ZM89.6409 138.906C89.2893 139.297 88.8206 139.492 88.3128 139.492H78.1565C77.219 139.492 76.4378 138.75 76.3597 137.813L72.7268 89.4532C72.6878 88.9454 72.844 88.4766 73.1956 88.086C73.5472 87.6954 74.0159 87.5001 74.5237 87.5001H84.68C85.6175 87.5001 86.3987 88.2422 86.4769 89.1797L90.1097 137.539C90.1487 138.047 89.9925 138.555 89.6409 138.906Z" fill="url(#paint17_linear_474_12753)"/>
<path d="M117.102 130.156H101.126C100.149 130.156 99.2507 130.547 98.5476 131.25C97.8835 131.953 97.4929 132.851 97.532 133.828L97.6492 137.851C97.7273 141.406 100.579 144.179 104.134 144.179H114.29C116.048 144.179 117.727 143.476 118.938 142.226C120.188 140.976 120.813 139.297 120.774 137.5L120.657 133.633C120.618 131.679 119.055 130.156 117.102 130.156ZM115.579 138.945C115.227 139.297 114.759 139.492 114.29 139.492H104.134C103.157 139.492 102.337 138.711 102.337 137.734L102.259 134.844H116.009L116.087 137.656C116.126 138.125 115.93 138.594 115.579 138.945Z" fill="url(#paint18_linear_474_12753)"/>
<path d="M144.953 130.156H128.977C127.024 130.156 125.461 131.679 125.383 133.633L125.266 137.539C125.227 139.297 125.891 140.976 127.102 142.265C128.352 143.515 129.992 144.219 131.75 144.219H141.906C145.461 144.219 148.313 141.445 148.391 137.89L148.508 133.867C148.547 132.89 148.156 131.953 147.492 131.289C146.828 130.508 145.93 130.156 144.953 130.156ZM143.742 137.734C143.703 138.711 142.922 139.492 141.945 139.492H131.789C131.281 139.492 130.852 139.297 130.5 138.945C130.149 138.594 129.992 138.125 129.992 137.656L130.07 134.844H143.82L143.742 137.734Z" fill="url(#paint19_linear_474_12753)"/>
<path d="M171.555 82.8513H161.399C158 82.8513 155.149 85.5076 154.914 88.8669L151.282 137.187C151.164 138.984 151.789 140.781 153 142.109C154.211 143.437 155.969 144.179 157.766 144.179H167.922C171.321 144.179 174.172 141.523 174.407 138.164L178.039 89.8044C178.157 88.0076 177.532 86.2107 176.321 84.8826C175.11 83.5935 173.352 82.8123 171.555 82.8513ZM173.352 89.4529L169.719 137.812C169.641 138.75 168.86 139.492 167.922 139.492H157.766C157.258 139.492 156.789 139.297 156.438 138.906C156.086 138.515 155.93 138.047 155.969 137.539L159.602 89.1794C159.68 88.2419 160.461 87.4997 161.399 87.4997H171.555C172.063 87.4997 172.532 87.6951 172.883 88.0857C173.235 88.4763 173.391 88.9451 173.352 89.4529Z" fill="url(#paint20_linear_474_12753)"/>
<path d="M143.196 82.8514H133.04C129.485 82.8514 126.634 85.6249 126.555 89.1796L126.438 93.203C126.399 94.1796 126.79 95.1171 127.454 95.7811C128.118 96.4842 129.055 96.8749 130.032 96.8749H146.009C147.962 96.8749 149.524 95.3514 149.602 93.3983L149.719 89.4921C149.759 87.7343 149.094 86.0546 147.884 84.7655C146.594 83.5155 144.954 82.8514 143.196 82.8514ZM144.915 92.1874H131.165L131.243 89.2968C131.282 88.3202 132.063 87.5389 133.04 87.5389H143.196C143.704 87.5389 144.134 87.7343 144.485 88.0858C144.837 88.4374 144.993 88.9061 144.993 89.3749L144.915 92.1874Z" fill="url(#paint21_linear_474_12753)"/>
<path d="M55.2661 67.9686L64.2896 147.695C64.7192 151.445 67.8833 154.258 71.6724 154.258H174.446C178.235 154.258 181.399 151.406 181.829 147.695L190.813 67.9686H55.2661ZM133.04 85.1951H143.196C145.54 85.1951 147.415 87.1092 147.336 89.4529L147.219 93.3592C147.219 94.0233 146.633 94.5701 145.969 94.5701H129.993C129.29 94.5701 128.743 93.9842 128.743 93.2811L128.86 89.2576C128.938 86.992 130.813 85.1951 133.04 85.1951ZM102.883 85.1951H113.04C115.305 85.1951 117.141 86.992 117.18 89.2576L117.297 93.2811C117.297 93.9842 116.75 94.5701 116.047 94.5701H100.071C99.4067 94.5701 98.8599 94.0233 98.8208 93.3592L98.7036 89.4529C98.6646 87.1092 100.54 85.1951 102.883 85.1951ZM88.313 141.836H78.1567C75.9692 141.836 74.1724 140.156 74.0161 138.008L70.3833 89.6483C70.188 87.2264 72.1021 85.1951 74.5239 85.1951H84.6802C86.8677 85.1951 88.6646 86.8748 88.8208 89.0233L92.4536 137.383C92.6489 139.805 90.7349 141.836 88.313 141.836ZM114.29 141.836H104.133C101.868 141.836 100.032 140.039 99.9927 137.773L99.8755 133.75C99.8755 133.047 100.422 132.461 101.125 132.461H117.102C117.766 132.461 118.313 133.008 118.352 133.672L118.469 137.539C118.508 139.922 116.633 141.836 114.29 141.836ZM141.907 141.836H131.75C129.407 141.836 127.532 139.922 127.61 137.578L127.727 133.711C127.727 133.047 128.313 132.5 128.977 132.5H144.954C145.657 132.5 146.204 133.086 146.204 133.789L146.086 137.812C146.008 140.039 144.172 141.836 141.907 141.836ZM175.696 89.6483L172.063 138.008C171.907 140.156 170.11 141.836 167.922 141.836H157.766C155.344 141.836 153.43 139.765 153.625 137.383L157.258 89.0233C157.415 86.8748 159.211 85.1951 161.399 85.1951H171.555C173.977 85.1951 175.891 87.2264 175.696 89.6483Z" fill="url(#paint22_linear_474_12753)"/>
<path d="M173.782 115.078L172.063 138.007C171.907 140.156 170.11 141.836 167.922 141.836H157.766C155.344 141.836 153.43 139.765 153.625 137.383L155.305 115.078H90.7739L92.4536 137.383C92.6489 139.804 90.7349 141.836 88.313 141.836H78.1567C75.9692 141.836 74.1724 140.156 74.0161 138.007L72.2974 115.078H60.6177L64.2896 147.695C64.7192 151.445 67.8833 154.258 71.6724 154.258H174.446C178.235 154.258 181.399 151.406 181.829 147.695L185.5 115.078H173.782ZM114.29 141.836H104.133C101.868 141.836 100.032 140.039 99.9927 137.773L99.8755 133.75C99.8755 133.047 100.422 132.461 101.125 132.461H117.102C117.766 132.461 118.313 133.008 118.352 133.672L118.469 137.539C118.508 139.922 116.633 141.836 114.29 141.836ZM146.086 137.812C146.008 140.078 144.172 141.875 141.946 141.875H131.79C129.446 141.875 127.571 139.961 127.649 137.617L127.766 133.75C127.766 133.086 128.352 132.539 129.016 132.539H144.993C145.696 132.539 146.243 133.125 146.243 133.828L146.086 137.812Z" fill="url(#paint23_linear_474_12753)"/>
<path d="M128.782 132.5H128.977H144.954C145.657 132.5 146.204 133.086 146.204 133.789L146.086 137.812C146.008 140.078 144.172 141.875 141.946 141.875H131.79C130.618 141.875 129.563 141.367 128.782 140.586V154.297H174.407C178.196 154.297 181.36 151.445 181.79 147.734L190.813 67.9686H128.782V132.5ZM153.625 137.383L157.258 89.0233C157.415 86.8748 159.211 85.1951 161.399 85.1951H171.555C173.977 85.1951 175.891 87.2654 175.696 89.6483L172.063 138.008C171.907 140.156 170.11 141.836 167.922 141.836H157.766C155.344 141.836 153.43 139.805 153.625 137.383ZM133.04 85.1951H143.196C145.54 85.1951 147.415 87.1092 147.336 89.4529L147.219 93.3592C147.219 94.0233 146.633 94.5701 145.969 94.5701H129.993C129.29 94.5701 128.743 93.9842 128.743 93.2811L128.86 89.2576C128.938 86.992 130.813 85.1951 133.04 85.1951Z" fill="url(#paint24_linear_474_12753)"/>
<path d="M58.8599 99.5701H71.1255L70.3833 89.6483C70.188 87.2264 72.1021 85.1951 74.5239 85.1951H84.6802C86.8677 85.1951 88.6646 86.8748 88.8208 89.0233L89.6021 99.5701H156.438L157.219 89.0233C157.375 86.8748 159.172 85.1951 161.36 85.1951H171.516C173.938 85.1951 175.852 87.2654 175.657 89.6483L174.915 99.5701H187.219L190.774 67.9686H55.2661L58.8599 99.5701ZM128.899 89.2186C128.977 86.9529 130.813 85.1561 133.04 85.1561H143.196C145.54 85.1561 147.415 87.0701 147.336 89.4139L147.219 93.3201C147.219 93.9842 146.633 94.5311 145.969 94.5311H129.993C129.29 94.5311 128.743 93.9451 128.743 93.242L128.899 89.2186ZM102.883 85.1951H113.04C115.305 85.1951 117.141 86.992 117.18 89.2576L117.297 93.2811C117.297 93.9842 116.75 94.5701 116.047 94.5701H100.071C99.4067 94.5701 98.8599 94.0233 98.8208 93.3592L98.7036 89.4529C98.6646 87.1092 100.54 85.1951 102.883 85.1951Z" fill="url(#paint25_linear_474_12753)"/>
<path d="M100.266 124.727L99.2114 102.539C99.1333 100.898 100.422 99.5703 102.063 99.5703H143.977C145.618 99.5703 146.907 100.938 146.829 102.539L145.774 124.727C145.696 126.25 144.446 127.422 142.922 127.422H103.079C101.594 127.461 100.344 126.25 100.266 124.727Z" fill="url(#paint26_linear_474_12753)"/>
<path d="M52.1021 57.1879H194.016C197.61 57.1879 200.54 60.1176 200.54 63.7113V69.9222C200.54 73.516 197.61 76.4457 194.016 76.4457H52.1021C48.5083 76.4457 45.5786 73.516 45.5786 69.9222V63.7113C45.5786 60.1176 48.4692 57.1879 52.1021 57.1879Z" fill="url(#paint27_linear_474_12753)"/>
<path d="M193.977 57.1879H165.188V76.4066H193.977C197.57 76.4066 200.5 73.4769 200.5 69.8832V63.6722C200.5 60.1176 197.57 57.1879 193.977 57.1879Z" fill="url(#paint28_linear_474_12753)"/>
</g>
<defs>
<linearGradient id="paint0_linear_474_12753" x1="64.3923" y1="37.9723" x2="48.7177" y2="51.0344" gradientUnits="userSpaceOnUse">
<stop stop-color="#E5E1E5"/>
<stop offset="0.198" stop-color="#E1DCE1"/>
<stop offset="0.4032" stop-color="#D5D0D5"/>
<stop offset="0.6118" stop-color="#C2BBC1"/>
<stop offset="0.8212" stop-color="#A79EA6"/>
<stop offset="1" stop-color="#8B8089"/>
</linearGradient>
<linearGradient id="paint1_linear_474_12753" x1="43.7724" y1="30.9152" x2="32.97" y2="28.2965" gradientUnits="userSpaceOnUse">
<stop stop-color="#444444" stop-opacity="0"/>
<stop offset="0.2378" stop-color="#444444" stop-opacity="0.061"/>
<stop offset="0.4841" stop-color="#444444" stop-opacity="0.244"/>
<stop offset="0.7343" stop-color="#444444" stop-opacity="0.549"/>
<stop offset="0.9859" stop-color="#444444" stop-opacity="0.973"/>
<stop offset="1" stop-color="#444444"/>
</linearGradient>
<linearGradient id="paint2_linear_474_12753" x1="102.451" y1="123.157" x2="111.797" y2="191.697" gradientUnits="userSpaceOnUse">
<stop stop-color="#E5E1E5"/>
<stop offset="0.198" stop-color="#E1DCE1"/>
<stop offset="0.4032" stop-color="#D5D0D5"/>
<stop offset="0.6118" stop-color="#C2BBC1"/>
<stop offset="0.8212" stop-color="#A79EA6"/>
<stop offset="1" stop-color="#8B8089"/>
</linearGradient>
<linearGradient id="paint3_linear_474_12753" x1="109.015" y1="174.832" x2="109.015" y2="185.307" gradientUnits="userSpaceOnUse">
<stop stop-color="#444444" stop-opacity="0"/>
<stop offset="0.2378" stop-color="#444444" stop-opacity="0.061"/>
<stop offset="0.4841" stop-color="#444444" stop-opacity="0.244"/>
<stop offset="0.7343" stop-color="#444444" stop-opacity="0.549"/>
<stop offset="0.9859" stop-color="#444444" stop-opacity="0.973"/>
<stop offset="1" stop-color="#444444"/>
</linearGradient>
<linearGradient id="paint4_linear_474_12753" x1="114.813" y1="176.977" x2="102.865" y2="182.869" gradientUnits="userSpaceOnUse">
<stop stop-color="#444444" stop-opacity="0"/>
<stop offset="0.2378" stop-color="#444444" stop-opacity="0.061"/>
<stop offset="0.4841" stop-color="#444444" stop-opacity="0.244"/>
<stop offset="0.7343" stop-color="#444444" stop-opacity="0.549"/>
<stop offset="0.9859" stop-color="#444444" stop-opacity="0.973"/>
<stop offset="1" stop-color="#444444"/>
</linearGradient>
<linearGradient id="paint5_linear_474_12753" x1="77.8932" y1="172.791" x2="96.3943" y2="191.293" gradientUnits="userSpaceOnUse">
<stop stop-color="#465A61"/>
<stop offset="0.3685" stop-color="#45565C"/>
<stop offset="0.7497" stop-color="#444D50"/>
<stop offset="1" stop-color="#444444"/>
</linearGradient>
<linearGradient id="paint6_linear_474_12753" x1="88.8381" y1="184.821" x2="88.8381" y2="201.68" gradientUnits="userSpaceOnUse">
<stop stop-color="#444444" stop-opacity="0"/>
<stop offset="0.3899" stop-color="#3D3D3D" stop-opacity="0.16"/>
<stop offset="0.7931" stop-color="#292929" stop-opacity="0.637"/>
<stop offset="1" stop-color="#1A1A1A"/>
</linearGradient>
<linearGradient id="paint7_linear_474_12753" x1="86.8126" y1="183.736" x2="109.37" y2="183.736" gradientUnits="userSpaceOnUse">
<stop stop-color="#444444" stop-opacity="0"/>
<stop offset="0.3899" stop-color="#3D3D3D" stop-opacity="0.16"/>
<stop offset="0.7931" stop-color="#292929" stop-opacity="0.637"/>
<stop offset="1" stop-color="#1A1A1A"/>
</linearGradient>
<linearGradient id="paint8_linear_474_12753" x1="94.9967" y1="189.895" x2="82.8029" y2="177.701" gradientUnits="userSpaceOnUse">
<stop stop-color="#465A61"/>
<stop offset="0.3685" stop-color="#45565C"/>
<stop offset="0.7497" stop-color="#444D50"/>
<stop offset="1" stop-color="#444444"/>
</linearGradient>
<linearGradient id="paint9_linear_474_12753" x1="154.983" y1="172.791" x2="173.485" y2="191.292" gradientUnits="userSpaceOnUse">
<stop stop-color="#465A61"/>
<stop offset="0.3685" stop-color="#45565C"/>
<stop offset="0.7497" stop-color="#444D50"/>
<stop offset="1" stop-color="#444444"/>
</linearGradient>
<linearGradient id="paint10_linear_474_12753" x1="165.928" y1="184.821" x2="165.928" y2="201.68" gradientUnits="userSpaceOnUse">
<stop stop-color="#444444" stop-opacity="0"/>
<stop offset="0.3899" stop-color="#3D3D3D" stop-opacity="0.16"/>
<stop offset="0.7931" stop-color="#292929" stop-opacity="0.637"/>
<stop offset="1" stop-color="#1A1A1A"/>
</linearGradient>
<linearGradient id="paint11_linear_474_12753" x1="163.903" y1="183.736" x2="186.46" y2="183.736" gradientUnits="userSpaceOnUse">
<stop stop-color="#444444" stop-opacity="0"/>
<stop offset="0.3899" stop-color="#3D3D3D" stop-opacity="0.16"/>
<stop offset="0.7931" stop-color="#292929" stop-opacity="0.637"/>
<stop offset="1" stop-color="#1A1A1A"/>
</linearGradient>
<linearGradient id="paint12_linear_474_12753" x1="172.087" y1="189.895" x2="159.893" y2="177.701" gradientUnits="userSpaceOnUse">
<stop stop-color="#465A61"/>
<stop offset="0.3685" stop-color="#45565C"/>
<stop offset="0.7497" stop-color="#444D50"/>
<stop offset="1" stop-color="#444444"/>
</linearGradient>
<linearGradient id="paint13_linear_474_12753" x1="19.7043" y1="17.2737" x2="19.7043" y2="35.8284" gradientUnits="userSpaceOnUse">
<stop stop-color="#FE860A"/>
<stop offset="0.3561" stop-color="#FC8108"/>
<stop offset="0.7245" stop-color="#F87504"/>
<stop offset="1" stop-color="#F46700"/>
</linearGradient>
<linearGradient id="paint14_linear_474_12753" x1="19.7043" y1="37.1325" x2="19.7043" y2="31.5676" gradientUnits="userSpaceOnUse">
<stop stop-color="#FE860A"/>
<stop offset="0.3561" stop-color="#FC8108"/>
<stop offset="0.7245" stop-color="#F87504"/>
<stop offset="1" stop-color="#F46700"/>
</linearGradient>
<linearGradient id="paint15_linear_474_12753" x1="25.2696" y1="26.3397" x2="40.8481" y2="26.3397" gradientUnits="userSpaceOnUse">
<stop stop-color="#F46700" stop-opacity="0"/>
<stop offset="0.1276" stop-color="#F36500" stop-opacity="0.018"/>
<stop offset="0.2599" stop-color="#F26103" stop-opacity="0.073"/>
<stop offset="0.3944" stop-color="#F15B07" stop-opacity="0.164"/>
<stop offset="0.5304" stop-color="#EF520D" stop-opacity="0.292"/>
<stop offset="0.6676" stop-color="#EC4614" stop-opacity="0.456"/>
<stop offset="0.8059" stop-color="#E9371D" stop-opacity="0.657"/>
<stop offset="0.9424" stop-color="#E52628" stop-opacity="0.891"/>
<stop offset="1" stop-color="#E41F2D"/>
</linearGradient>
<linearGradient id="paint16_linear_474_12753" x1="114.188" y1="103.184" x2="103.788" y2="82.6225" gradientUnits="userSpaceOnUse">
<stop stop-color="#62DBFB"/>
<stop offset="0.2058" stop-color="#5DD8FA"/>
<stop offset="0.4191" stop-color="#51D1F9"/>
<stop offset="0.6358" stop-color="#3CC6F6"/>
<stop offset="0.8535" stop-color="#1FB6F3"/>
<stop offset="1" stop-color="#08A9F1"/>
</linearGradient>
<linearGradient id="paint17_linear_474_12753" x1="101.783" y1="115.149" x2="64.605" y2="112.16" gradientUnits="userSpaceOnUse">
<stop stop-color="#62DBFB"/>
<stop offset="0.2058" stop-color="#5DD8FA"/>
<stop offset="0.4191" stop-color="#51D1F9"/>
<stop offset="0.6358" stop-color="#3CC6F6"/>
<stop offset="0.8535" stop-color="#1FB6F3"/>
<stop offset="1" stop-color="#08A9F1"/>
</linearGradient>
<linearGradient id="paint18_linear_474_12753" x1="117.404" y1="152.103" x2="106.047" y2="129.988" gradientUnits="userSpaceOnUse">
<stop stop-color="#62DBFB"/>
<stop offset="0.2058" stop-color="#5DD8FA"/>
<stop offset="0.4191" stop-color="#51D1F9"/>
<stop offset="0.6358" stop-color="#3CC6F6"/>
<stop offset="0.8535" stop-color="#1FB6F3"/>
<stop offset="1" stop-color="#08A9F1"/>
</linearGradient>
<linearGradient id="paint19_linear_474_12753" x1="139.592" y1="146.327" x2="135.528" y2="130.547" gradientUnits="userSpaceOnUse">
<stop stop-color="#62DBFB"/>
<stop offset="0.2058" stop-color="#5DD8FA"/>
<stop offset="0.4191" stop-color="#51D1F9"/>
<stop offset="0.6358" stop-color="#3CC6F6"/>
<stop offset="0.8535" stop-color="#1FB6F3"/>
<stop offset="1" stop-color="#08A9F1"/>
</linearGradient>
<linearGradient id="paint20_linear_474_12753" x1="177.976" y1="116.504" x2="151.916" y2="110.647" gradientUnits="userSpaceOnUse">
<stop stop-color="#62DBFB"/>
<stop offset="0.2058" stop-color="#5DD8FA"/>
<stop offset="0.4191" stop-color="#51D1F9"/>
<stop offset="0.6358" stop-color="#3CC6F6"/>
<stop offset="0.8535" stop-color="#1FB6F3"/>
<stop offset="1" stop-color="#08A9F1"/>
</linearGradient>
<linearGradient id="paint21_linear_474_12753" x1="144.243" y1="104.491" x2="133.843" y2="81.7776" gradientUnits="userSpaceOnUse">
<stop stop-color="#62DBFB"/>
<stop offset="0.2058" stop-color="#5DD8FA"/>
<stop offset="0.4191" stop-color="#51D1F9"/>
<stop offset="0.6358" stop-color="#3CC6F6"/>
<stop offset="0.8535" stop-color="#1FB6F3"/>
<stop offset="1" stop-color="#08A9F1"/>
</linearGradient>
<linearGradient id="paint22_linear_474_12753" x1="58.1114" y1="-18.8865" x2="201.342" y2="243.703" gradientUnits="userSpaceOnUse">
<stop stop-color="#62DBFB"/>
<stop offset="0.2058" stop-color="#5DD8FA"/>
<stop offset="0.4191" stop-color="#51D1F9"/>
<stop offset="0.6358" stop-color="#3CC6F6"/>
<stop offset="0.8535" stop-color="#1FB6F3"/>
<stop offset="1" stop-color="#08A9F1"/>
</linearGradient>
<linearGradient id="paint23_linear_474_12753" x1="123.036" y1="139.452" x2="123.036" y2="154.801" gradientUnits="userSpaceOnUse">
<stop stop-color="#017BAE" stop-opacity="0"/>
<stop offset="0.1466" stop-color="#017BAE" stop-opacity="0.024"/>
<stop offset="0.2986" stop-color="#017BAE" stop-opacity="0.095"/>
<stop offset="0.4531" stop-color="#017BAE" stop-opacity="0.215"/>
<stop offset="0.6093" stop-color="#017BAE" stop-opacity="0.382"/>
<stop offset="0.7669" stop-color="#017BAE" stop-opacity="0.597"/>
<stop offset="0.9233" stop-color="#017BAE" stop-opacity="0.856"/>
<stop offset="1" stop-color="#017BAE"/>
</linearGradient>
<linearGradient id="paint24_linear_474_12753" x1="170.146" y1="112.876" x2="184.252" y2="115.267" gradientUnits="userSpaceOnUse">
<stop stop-color="#017BAE" stop-opacity="0"/>
<stop offset="0.1466" stop-color="#017BAE" stop-opacity="0.024"/>
<stop offset="0.2986" stop-color="#017BAE" stop-opacity="0.095"/>
<stop offset="0.4531" stop-color="#017BAE" stop-opacity="0.215"/>
<stop offset="0.6093" stop-color="#017BAE" stop-opacity="0.382"/>
<stop offset="0.7669" stop-color="#017BAE" stop-opacity="0.597"/>
<stop offset="0.9233" stop-color="#017BAE" stop-opacity="0.856"/>
<stop offset="1" stop-color="#017BAE"/>
</linearGradient>
<linearGradient id="paint25_linear_474_12753" x1="123.036" y1="87.0924" x2="123.036" y2="75.6065" gradientUnits="userSpaceOnUse">
<stop stop-color="#017BAE" stop-opacity="0"/>
<stop offset="0.1466" stop-color="#017BAE" stop-opacity="0.024"/>
<stop offset="0.2986" stop-color="#017BAE" stop-opacity="0.095"/>
<stop offset="0.4531" stop-color="#017BAE" stop-opacity="0.215"/>
<stop offset="0.6093" stop-color="#017BAE" stop-opacity="0.382"/>
<stop offset="0.7669" stop-color="#017BAE" stop-opacity="0.597"/>
<stop offset="0.9233" stop-color="#017BAE" stop-opacity="0.856"/>
<stop offset="1" stop-color="#017BAE"/>
</linearGradient>
<linearGradient id="paint26_linear_474_12753" x1="137.848" y1="143.045" x2="109.158" y2="83.7512" gradientUnits="userSpaceOnUse">
<stop stop-color="#62DBFB"/>
<stop offset="0.2058" stop-color="#5DD8FA"/>
<stop offset="0.4191" stop-color="#51D1F9"/>
<stop offset="0.6358" stop-color="#3CC6F6"/>
<stop offset="0.8535" stop-color="#1FB6F3"/>
<stop offset="1" stop-color="#08A9F1"/>
</linearGradient>
<linearGradient id="paint27_linear_474_12753" x1="123.036" y1="55.5336" x2="123.036" y2="79.2019" gradientUnits="userSpaceOnUse">
<stop stop-color="#62DBFB"/>
<stop offset="0.2058" stop-color="#5DD8FA"/>
<stop offset="0.4191" stop-color="#51D1F9"/>
<stop offset="0.6358" stop-color="#3CC6F6"/>
<stop offset="0.8535" stop-color="#1FB6F3"/>
<stop offset="1" stop-color="#08A9F1"/>
</linearGradient>
<linearGradient id="paint28_linear_474_12753" x1="188.482" y1="66.8242" x2="201.534" y2="66.8242" gradientUnits="userSpaceOnUse">
<stop stop-color="#017BAE" stop-opacity="0"/>
<stop offset="0.1466" stop-color="#017BAE" stop-opacity="0.024"/>
<stop offset="0.2986" stop-color="#017BAE" stop-opacity="0.095"/>
<stop offset="0.4531" stop-color="#017BAE" stop-opacity="0.215"/>
<stop offset="0.6093" stop-color="#017BAE" stop-opacity="0.382"/>
<stop offset="0.7669" stop-color="#017BAE" stop-opacity="0.597"/>
<stop offset="0.9233" stop-color="#017BAE" stop-opacity="0.856"/>
<stop offset="1" stop-color="#017BAE"/>
</linearGradient>
<clipPath id="clip0_474_12753">
<rect width="200" height="200" fill="white" transform="translate(0.5)"/>
</clipPath>
</defs>
</svg>
