<svg width="16" height="16" viewBox="0 0 16 16" fill="none" xmlns="http://www.w3.org/2000/svg">
<path fill-rule="evenodd" clip-rule="evenodd" d="M9.33268 9.33331H10.666C11.034 9.33331 11.3327 9.63198 11.3327 9.99998V12.6666C11.3327 13.0346 11.034 13.3333 10.666 13.3333H9.33268C8.96468 13.3333 8.66602 13.0346 8.66602 12.6666V9.99998C8.66602 9.63198 8.96468 9.33331 9.33268 9.33331Z" stroke="#141511" stroke-width="1.5" stroke-linecap="round" stroke-linejoin="round"/>
<path d="M14.0007 11.3333H11.334" stroke="#141511" stroke-width="1.5" stroke-linecap="round" stroke-linejoin="round"/>
<path d="M8.66667 11.3333H2" stroke="#141511" stroke-width="1.5" stroke-linecap="round" stroke-linejoin="round"/>
<path fill-rule="evenodd" clip-rule="evenodd" d="M6.66602 6.66669H5.33268C4.96468 6.66669 4.66602 6.36802 4.66602 6.00002V3.33335C4.66602 2.96535 4.96468 2.66669 5.33268 2.66669H6.66602C7.03402 2.66669 7.33268 2.96535 7.33268 3.33335V6.00002C7.33268 6.36802 7.03402 6.66669 6.66602 6.66669Z" stroke="#141511" stroke-width="1.5" stroke-linecap="round" stroke-linejoin="round"/>
<path d="M2 4.66671H4.66667" stroke="#141511" stroke-width="1.5" stroke-linecap="round" stroke-linejoin="round"/>
<path d="M7.33398 4.66671H14.0007" stroke="#141511" stroke-width="1.5" stroke-linecap="round" stroke-linejoin="round"/>
</svg>
