<svg width="20" height="21" viewBox="0 0 20 21" fill="none" xmlns="http://www.w3.org/2000/svg">
<path d="M5.8243 11.6506L5.30218 13.5997L3.39381 13.6401C2.82349 12.5823 2.5 11.372 2.5 10.0859C2.5 8.84221 2.80246 7.6694 3.33859 6.63672H3.339L5.03798 6.9482L5.78223 8.63698C5.62646 9.09111 5.54156 9.57861 5.54156 10.0859C5.54162 10.6364 5.64134 11.1639 5.8243 11.6506Z" fill="#FBBB00"/>
<path d="M17.3691 8.68457C17.4552 9.13826 17.5001 9.6068 17.5001 10.0857C17.5001 10.6226 17.4437 11.1464 17.3361 11.6516C16.971 13.3708 16.017 14.872 14.6955 15.9344L14.6951 15.934L12.5551 15.8248L12.2523 13.9341C13.1292 13.4199 13.8145 12.6151 14.1755 11.6516H10.165V8.68457H14.234H17.3691Z" fill="#518EF8"/>
<path d="M14.6946 15.934L14.695 15.9344C13.4097 16.9675 11.777 17.5856 9.99971 17.5856C7.14354 17.5856 4.66032 15.9892 3.39355 13.6399L5.82404 11.6504C6.45741 13.3408 8.08804 14.5441 9.99971 14.5441C10.8214 14.5441 11.5912 14.3219 12.2517 13.9342L14.6946 15.934Z" fill="#28B446"/>
<path d="M14.787 4.31257L12.3573 6.3017C11.6737 5.87438 10.8655 5.62753 9.99976 5.62753C8.04481 5.62753 6.38369 6.88603 5.78205 8.63701L3.33879 6.63674H3.33838C4.5866 4.23016 7.10114 2.58594 9.99976 2.58594C11.8195 2.58594 13.4881 3.23416 14.787 4.31257Z" fill="#F14336"/>
</svg>
