<svg width="81" height="80" viewBox="0 0 81 80" fill="none" xmlns="http://www.w3.org/2000/svg">
<rect width="80" height="80" transform="translate(0.666992)" fill="#F3F3F3"/>
<path d="M53.1634 32.025C50.2044 30.3169 46.4206 31.3319 44.7107 34.2909L40.4003 41.7578C39.153 43.914 40.7587 44.6674 42.5491 45.7409L46.6967 48.1348C48.1013 48.945 49.8953 48.464 50.7055 47.0613L55.1366 39.3877C56.6253 36.8091 55.7419 33.5137 53.1634 32.025Z" fill="#EA4335"/>
<path d="M48.2872 35.116L44.1395 32.7221C41.8499 31.4511 40.5533 31.367 39.6132 32.8611L33.496 43.4553C31.7879 46.4125 32.8047 50.1944 35.7618 51.8988C38.3404 53.3874 41.6359 52.5041 43.1246 49.9256L49.3589 39.1265C50.1727 37.722 49.6917 35.9261 48.2872 35.116Z" fill="#FBBC04"/>
<path d="M49.0848 29.6695L46.1716 27.987C42.9493 26.1271 38.829 27.2299 36.9691 30.4522L31.4224 40.0588C30.6031 41.4761 31.0896 43.2903 32.5069 44.1078L35.7695 45.9914C37.3806 46.9223 39.4398 46.37 40.3707 44.7588L46.7074 33.7843C48.0205 31.5111 50.9264 30.732 53.1996 32.0451L49.0848 29.6695Z" fill="#34A853"/>
<path d="M37.7568 33.2008L34.6077 31.3867C33.2031 30.5783 31.4091 31.0575 30.599 32.4583L26.8207 38.9871C24.9608 42.2003 26.0636 46.3114 29.2859 48.1658L31.6834 49.5465L34.5912 51.2217L35.8531 51.9477C33.6128 50.4482 32.9014 47.4434 34.2711 45.077L35.2495 43.3872L38.8322 37.1967C39.6405 35.7996 39.1595 34.0091 37.7568 33.2008Z" fill="#4285F4"/>
</svg>
