<svg width="20" height="20" viewBox="0 0 20 20" fill="none" xmlns="http://www.w3.org/2000/svg">
<path fill-rule="evenodd" clip-rule="evenodd" d="M10.4242 4.9785L9.99998 5.40926L9.57569 4.97843C8.80211 4.19255 7.74551 3.75 6.64277 3.75C5.54004 3.75 4.48343 4.19255 3.70985 4.97843V4.97843C2.09672 6.63614 2.09672 9.27687 3.70985 10.9346L8.20373 15.4976C8.67751 15.9789 9.32464 16.25 10 16.25C10.6754 16.25 11.3225 15.9789 11.7963 15.4976L16.2902 10.9347C17.9033 9.27695 17.9033 6.63622 16.2902 4.9785V4.9785C15.5166 4.1926 14.4599 3.75003 13.3572 3.75003C12.2544 3.75003 11.1978 4.19259 10.4242 4.9785Z" stroke="#4F4F4D" stroke-width="1.25" stroke-linecap="round" stroke-linejoin="round"/>
</svg>
