<svg width="26" height="25" viewBox="0 0 26 25" fill="none" xmlns="http://www.w3.org/2000/svg">
<path d="M13.0347 24.5L11.5784 23.128C9.39119 21.0487 7.58245 19.2619 6.15217 17.7677C4.72189 16.2733 3.58849 14.9432 2.75196 13.7776C1.91543 12.6123 1.33103 11.5491 0.99875 10.5881C0.66625 9.6274 0.5 8.65249 0.5 7.66341C0.5 5.70116 1.13135 4.0583 2.39406 2.73484C3.65699 1.41161 5.22471 0.75 7.09722 0.75C8.2491 0.75 9.33764 1.0323 10.3628 1.59689C11.3881 2.16149 12.2787 2.97117 13.0347 4.02592C13.7908 2.97117 14.6814 2.16149 15.7066 1.59689C16.7318 1.0323 17.8203 0.75 18.9722 0.75C20.8447 0.75 22.4125 1.41161 23.6754 2.73484C24.9381 4.0583 25.5694 5.70116 25.5694 7.66341C25.5694 8.65249 25.4032 9.6274 25.0707 10.5881C24.7384 11.5491 24.154 12.6123 23.3175 13.7776C22.481 14.9432 21.3496 16.2733 19.9235 17.7677C18.4977 19.2619 16.6868 21.0487 14.4911 23.128L13.0347 24.5ZM13.0347 21.6976C15.1458 19.707 16.8831 18.0008 18.2465 16.579C19.61 15.1573 20.6875 13.9222 21.4792 12.8737C22.2708 11.8252 22.8206 10.8941 23.1285 10.0803C23.4363 9.26687 23.5903 8.46122 23.5903 7.66341C23.5903 6.28073 23.1505 5.1285 22.2708 4.20671C21.3912 3.28492 20.2917 2.82402 18.9722 2.82402C17.9303 2.82402 16.9673 3.13375 16.0833 3.75319C15.1995 4.37286 14.4996 5.23485 13.9837 6.33915H12.0857C11.5612 5.22586 10.8592 4.36168 9.97955 3.74662C9.09992 3.13156 8.13914 2.82402 7.09722 2.82402C5.78613 2.82402 4.68869 3.28492 3.80488 4.20671C2.92107 5.1285 2.47917 6.28073 2.47917 7.66341C2.47917 8.46122 2.6331 9.26687 2.94097 10.0803C3.24884 10.8941 3.79861 11.8252 4.59028 12.8737C5.38194 13.9222 6.45949 15.1551 7.82292 16.5724C9.18634 17.9896 10.9236 19.6981 13.0347 21.6976Z" fill="black"/>
</svg>
