<svg width="34" height="34" viewBox="0 0 34 34" fill="none" xmlns="http://www.w3.org/2000/svg">
<path fill-rule="evenodd" clip-rule="evenodd" d="M17 9.5C15.0109 9.5 13.1032 10.2902 11.6967 11.6967C10.2902 13.1032 9.5 15.0109 9.5 17C9.5 18.9891 10.2902 20.8968 11.6967 22.3033C13.1032 23.7098 15.0109 24.5 17 24.5C18.9891 24.5 20.8968 23.7098 22.3033 22.3033C23.7098 20.8968 24.5 18.9891 24.5 17C24.5 15.0109 23.7098 13.1032 22.3033 11.6967C20.8968 10.2902 18.9891 9.5 17 9.5ZM12.5 17C12.5 18.1935 12.9741 19.3381 13.818 20.182C14.6619 21.0259 15.8065 21.5 17 21.5C18.1935 21.5 19.3381 21.0259 20.182 20.182C21.0259 19.3381 21.5 18.1935 21.5 17C21.5 15.8065 21.0259 14.6619 20.182 13.818C19.3381 12.9741 18.1935 12.5 17 12.5C15.8065 12.5 14.6619 12.9741 13.818 13.818C12.9741 14.6619 12.5 15.8065 12.5 17Z" fill="#E6E6E6"/>
<path d="M26 6.5C25.6022 6.5 25.2206 6.65804 24.9393 6.93934C24.658 7.22064 24.5 7.60218 24.5 8C24.5 8.39782 24.658 8.77936 24.9393 9.06066C25.2206 9.34196 25.6022 9.5 26 9.5C26.3978 9.5 26.7794 9.34196 27.0607 9.06066C27.342 8.77936 27.5 8.39782 27.5 8C27.5 7.60218 27.342 7.22064 27.0607 6.93934C26.7794 6.65804 26.3978 6.5 26 6.5Z" fill="#E6E6E6"/>
<path fill-rule="evenodd" clip-rule="evenodd" d="M6.5 0.5C4.9087 0.5 3.38258 1.13214 2.25736 2.25736C1.13214 3.38258 0.5 4.9087 0.5 6.5V27.5C0.5 29.0913 1.13214 30.6174 2.25736 31.7426C3.38258 32.8679 4.9087 33.5 6.5 33.5H27.5C29.0913 33.5 30.6174 32.8679 31.7426 31.7426C32.8679 30.6174 33.5 29.0913 33.5 27.5V6.5C33.5 4.9087 32.8679 3.38258 31.7426 2.25736C30.6174 1.13214 29.0913 0.5 27.5 0.5H6.5ZM27.5 3.5H6.5C5.70435 3.5 4.94129 3.81607 4.37868 4.37868C3.81607 4.94129 3.5 5.70435 3.5 6.5V27.5C3.5 28.2956 3.81607 29.0587 4.37868 29.6213C4.94129 30.1839 5.70435 30.5 6.5 30.5H27.5C28.2956 30.5 29.0587 30.1839 29.6213 29.6213C30.1839 29.0587 30.5 28.2956 30.5 27.5V6.5C30.5 5.70435 30.1839 4.94129 29.6213 4.37868C29.0587 3.81607 28.2956 3.5 27.5 3.5Z" fill="#E6E6E6"/>
</svg>
