<svg width="121" height="20" viewBox="0 0 121 20" fill="none" xmlns="http://www.w3.org/2000/svg">
<path d="M12.1797 9.47611L14.0216 12.3972L17.7266 6.49215V19.573H20.9181V0.545465H17.6612L12.1797 9.47611Z" fill="#F3F3F3"/>
<path d="M3.22798 0.545404H0V19.5729H3.19955V6.49209L10.4636 18.1071L12.3165 15.1431L3.22798 0.545404Z" fill="#F3F3F3"/>
<path d="M40.1133 13.6748L43.0663 19.5727H46.9152L37.2593 0.545584H33.7894L33.7864 0.551525L38.6212 10.6421H32.1966L33.8734 7.35253L32.1244 3.77781L23.9883 19.5727H27.588L30.6293 13.6761L40.1133 13.6748Z" fill="#F3F3F3"/>
<path d="M68.2238 0.545506H65.0234V9.78553L68.2238 12.9995V0.545506Z" fill="#F3F3F3"/>
<path d="M52.7794 0.545404H49.5234V19.5729H52.7251V5.35513L65.8425 19.5729H68.2255V17.2608L52.7794 0.545404Z" fill="#F3F3F3"/>
<path d="M90.5863 5.82555C89.0623 4.24297 86.7124 3.2295 84.076 3.2295C79.8685 3.2295 76.391 5.8124 75.8363 9.16431H72.3125C72.773 3.96159 78.0966 0.126717 84.1193 0.126717C87.7012 0.126717 90.9195 1.4606 93.086 3.60679L90.5863 5.82555Z" fill="#F3F3F3"/>
<path d="M83.7795 16.9155C80.2667 16.9155 77.2764 15.012 76.1611 12.3493H72.5664C73.7551 16.9388 78.4291 20 83.9785 20C85.267 20 86.7498 19.8727 87.981 19.5671C90.7596 18.8796 93.794 17.0738 93.794 14.2231V9.16423H83.7425L83.7353 12.3493H90.5817V13.7953C90.5817 15.3919 88.1962 16.3154 86.7363 16.6396C85.9507 16.814 84.9423 16.9155 84.1283 16.9155H83.7795Z" fill="#F3F3F3"/>
<path d="M120.252 10.0769C120.252 4.4023 115.101 3.8147e-06 108.774 3.8147e-06C102.648 3.8147e-06 97.2656 4.19901 97.2656 9.77138C97.2656 15.0254 101.493 19.2351 107.187 19.9026V16.7239C103.461 16.1102 100.646 13.327 100.646 9.97976C100.646 6.18266 104.267 3.10237 108.731 3.10237C113.197 3.10237 116.816 6.18266 116.816 9.97976C116.816 13.3011 114.045 16.0657 110.363 16.7086V19.8942C115.827 19.23 120.252 15.1774 120.252 10.0769Z" fill="#F3F3F3"/>
</svg>
