<svg width="105" height="22" viewBox="0 0 105 22" fill="none" xmlns="http://www.w3.org/2000/svg">
<path d="M11.4654 1C5.22513 1 1 5.38027 1 11.0004C1 16.6206 5.22513 21 11.4654 21C17.7055 21 21.9306 16.6206 21.9306 11.0004C21.9306 5.38027 17.7057 1 11.4654 1ZM11.4654 20.3416C7.12362 20.3416 4.21654 17.2794 4.21654 11.0004C4.21654 4.72063 7.12362 1.65923 11.4654 1.65923C15.8062 1.65923 18.7131 4.72063 18.7131 11.0004C18.7131 17.2794 15.8062 20.3416 11.4654 20.3416Z" fill="#F3F3F3" stroke="#F3F3F3" stroke-miterlimit="10"/>
<path d="M36.8152 1.81371V2.24065C38.0168 2.27912 38.5595 2.51142 38.5595 3.32558C38.5595 3.98502 38.0939 4.79857 35.9236 8.24863C34.744 10.0978 34.0632 11.5517 33.8588 12.0098C33.6009 11.2171 32.9576 9.62788 31.3889 7.04642C30.8846 6.19399 30.4584 5.57405 30.1095 5.03107C29.3729 3.90684 29.0634 3.32558 29.0634 2.97642C29.0634 2.43447 29.3731 2.35649 30.2648 2.24065V1.81371C30.2648 1.81371 28.6363 1.85301 27.59 1.85301C24.9157 1.85301 23.1328 1.73635 23.1328 1.73635V2.16267C25.0321 2.43427 26.1171 3.20954 29.2178 8.13177C31.2339 11.465 31.5827 12.6279 31.6214 14.1398V14.7595C31.6214 16.7361 31.6214 18.0155 31.466 18.7521C31.2724 19.6827 30.7294 19.7212 29.528 19.8371V20.2642C29.9928 20.2247 31.466 20.1089 32.8999 20.1089C34.3731 20.1089 36.2726 20.2642 36.2726 20.2642V19.8371C35.1099 19.7214 34.5286 19.6827 34.3344 18.7521C34.1793 18.0155 34.1793 16.7361 34.1793 14.7595V13.9844C34.2564 12.6666 34.7221 11.4648 36.4666 8.63586C39.1797 4.2558 40.3811 2.55011 42.5902 2.16247V1.73615C42.1255 1.77462 40.4975 1.85281 38.7921 1.85281C37.551 1.85322 36.8152 1.81371 36.8152 1.81371Z" fill="#F3F3F3" stroke="#F3F3F3" stroke-miterlimit="10"/>
<path d="M72.4751 1.73633V2.16265C73.6763 2.27911 74.2192 2.31778 74.4131 3.2482C74.5674 3.985 74.5674 5.30202 74.5674 7.27951V10.3024H64.296V7.27951C64.296 5.30202 64.296 3.98479 64.4511 3.2482C64.6447 2.31778 65.2264 2.27931 66.3891 2.16265V1.73633C66.3891 1.73633 64.4898 1.85299 63.0172 1.85299C61.5827 1.85299 60.1104 1.77481 59.6445 1.73633V2.16265C60.8465 2.27911 61.3885 2.31778 61.5827 3.2482C61.7379 3.985 61.7379 5.30202 61.7379 7.27951V14.721C61.7379 16.6976 61.7379 18.0157 61.5827 18.7521C61.3887 19.6827 60.8465 19.7212 59.6445 19.837V20.2642C60.1101 20.2247 61.5827 20.1475 63.0172 20.1475C64.4896 20.1475 66.3891 20.2642 66.3891 20.2642V19.837C65.2264 19.7214 64.6449 19.6827 64.4511 18.7521C64.296 18.0155 64.296 16.6976 64.296 14.721V11.116H74.5674V14.721C74.5674 16.6976 74.5674 18.0157 74.4131 18.7521C74.2194 19.6827 73.6763 19.7212 72.4751 19.837V20.2642C72.9399 20.2247 74.4131 20.1475 75.847 20.1475C77.3199 20.1475 79.2188 20.2642 79.2188 20.2642V19.837C78.0559 19.7214 77.4745 19.6827 77.2806 18.7521C77.1263 18.0155 77.1263 16.6976 77.1263 14.721V7.27951C77.1263 5.30202 77.1263 3.98479 77.2806 3.2482C77.4743 2.31778 78.0559 2.27931 79.2188 2.16265V1.73633C79.2188 1.73633 77.3201 1.85299 75.847 1.85299C74.4131 1.85319 72.9399 1.77501 72.4751 1.73633Z" fill="#F3F3F3" stroke="#F3F3F3" stroke-miterlimit="10"/>
<path d="M51.6192 9.99259L49.5648 8.71342C47.9371 7.66717 46.6968 6.73675 46.6968 4.83724C46.6968 2.89926 48.1307 1.69786 50.2627 1.69786C53.3247 1.69786 54.022 4.17883 54.2938 5.96147H54.6427C54.6427 5.72897 54.7199 5.03106 54.7199 4.06217C54.7199 2.86078 54.6427 2.20135 54.6427 2.20135C54.4096 2.04682 52.8986 1.15509 50.4176 1.15509C46.8128 1.15509 44.8362 3.36426 44.8362 6.03863C44.8362 8.0153 45.6884 9.91461 48.4014 11.5818L50.4561 12.8604C52.0838 13.8688 53.4798 14.915 53.4798 16.853C53.4798 19.2173 51.8513 20.3415 49.6039 20.3415C46.6966 20.3415 45.4559 18.5587 44.7193 15.264H44.3709C44.3319 15.8068 44.293 16.3882 44.293 17.2793C44.293 18.4036 44.3709 19.3727 44.3709 19.3727C44.487 19.4891 46.2312 20.8845 49.2936 20.8845C53.1696 20.8845 55.418 18.7525 55.418 15.5352C55.4182 13.2478 54.2553 11.6203 51.6192 9.99259Z" fill="#F3F3F3" stroke="#F3F3F3" stroke-miterlimit="10"/>
<path d="M93.4068 1C87.1657 1 82.9414 5.38027 82.9414 11.0004C82.9414 16.6206 87.1657 21 93.4068 21C99.6469 21 103.872 16.6206 103.872 11.0004C103.872 5.38027 99.6469 1 93.4068 1ZM93.4068 20.3416C89.0652 20.3416 86.1582 17.2794 86.1582 11.0004C86.1582 4.72063 89.0652 1.65923 93.4068 1.65923C97.7476 1.65923 100.654 4.72063 100.654 11.0004C100.654 17.2794 97.7476 20.3416 93.4068 20.3416Z" fill="#F3F3F3" stroke="#F3F3F3" stroke-miterlimit="10"/>
</svg>
