<svg width="128" height="25" viewBox="0 0 128 25" fill="none" xmlns="http://www.w3.org/2000/svg">
<g clip-path="url(#clip0_626_20391)">
<path d="M107.08 0.724182C105.843 0.724182 103.982 1.75666 103.982 3.12399C103.982 4.26808 104.786 4.85408 105.936 4.85408C107.375 4.85408 109.647 4.24018 109.647 2.48218C109.647 1.03113 108.317 0.724182 107.08 0.724182ZM35.9228 1.7427C35.7693 1.7081 35.7553 1.86828 35.7553 1.86828C34.8496 3.88579 32.9158 5.32511 30.7604 5.94237C30.7604 5.94237 30.6628 5.96246 30.6628 6.08189V7.36551C30.6628 7.55358 30.7604 7.50503 30.7604 7.50503H31.9743C32.111 7.50503 32.0719 7.61665 32.0719 7.61665V15.7648C32.0719 18.192 33.0815 19.4483 35.6995 19.4483C38.0341 19.4483 38.206 19.3908 40.0527 18.067C40.0527 18.067 40.171 18.0257 40.1085 17.8856C40.0583 17.7729 39.5783 16.6438 39.5365 16.5043C39.4851 16.3335 39.369 16.4345 39.369 16.4345C39.0314 16.6064 38.9527 16.602 38.518 16.602C38.0865 16.602 37.346 16.4345 37.346 15.5695V7.61665C37.346 7.61665 37.3178 7.50503 37.4715 7.50503H39.3272C39.3272 7.50503 39.446 7.56419 39.4807 7.39341C39.5217 7.1858 39.8713 5.45403 39.8713 5.45403C39.8713 5.45403 39.9243 5.32846 39.7876 5.32846H37.4436C37.4436 5.32846 37.346 5.37088 37.346 5.21684V4.21227C37.346 3.61344 37.3826 2.82485 37.5134 2.16128C37.5134 2.16128 37.5865 2.0558 37.4157 2.02175C37.1785 1.97431 36.0769 1.77619 35.9228 1.7427ZM67.3993 2.76123C65.8456 2.76123 65.3305 3.1798 64.9856 4.21227C64.9856 4.21227 64.7517 4.89036 64.6786 5.13313C64.6273 5.30446 64.5112 5.2587 64.5112 5.2587C63.7427 5.13983 62.9167 4.90989 61.4696 4.90989C58.3342 4.90989 55.0515 6.63998 55.0515 10.6583C55.0515 13.5051 57.3933 15.1465 59.7953 15.5695C59.7953 15.5695 60.1748 15.6264 59.7953 15.7369C59.0826 15.9434 57.5897 16.8302 55.8886 17.1043C55.8886 17.1043 55.7195 17.1227 55.8049 17.3275C55.8469 17.4279 56.3184 18.6128 56.3909 18.8064C56.4423 18.9432 56.6142 18.9181 56.6142 18.9181C57.4089 18.7557 59.6932 18.9644 60.1022 19.0157C60.46 19.0609 60.1022 19.1134 60.1022 19.1134C58.9023 19.3177 57.5071 20.1866 57.5071 21.4853C57.5071 23.745 60.0961 24.2758 62.6276 24.2758C64.3538 24.2758 68.5155 23.5502 68.5155 20.5086C68.5155 17.4592 63.8063 16.8659 61.4975 16.6438C61.1046 16.6064 61.4975 16.5322 61.4975 16.5322C64.9415 15.6811 68.976 14.7697 68.976 10.435C68.976 7.17017 66.2692 6.30513 66.2692 5.74703C66.2692 5.44008 66.4545 5.15266 66.7994 5.13313C67.3977 5.09853 67.4228 5.15099 67.7202 5.32846C67.7202 5.32846 67.8084 5.47747 67.8598 5.27265C67.8901 5.15155 68.4039 3.12566 68.4318 2.97051C68.4662 2.78243 68.3062 2.83099 68.3062 2.83099C68.0054 2.80197 67.694 2.76123 67.3993 2.76123ZM20.045 4.26808C19.9839 4.28661 19.9752 4.36575 19.9752 4.36575C19.9752 4.36575 18.3138 8.45044 18.2452 8.62122C18.1771 8.792 18.301 8.8026 18.301 8.8026C18.301 8.8026 19.6817 9.29205 19.8357 9.36069C19.9892 9.42878 20.045 9.31886 20.045 9.31886C20.7973 8.39298 21.553 7.812 23.1703 7.812C24.4361 7.812 25.0679 8.28638 25.0679 9.43048V9.863C25.0679 10.0165 25.0121 10.0304 25.0121 10.0304L21.1193 10.1281C18.5594 10.1281 16.4872 11.9704 16.4872 15.2068C16.4872 17.8025 18.4461 19.4483 21.0635 19.4483C22.6111 19.4483 23.8334 18.7814 24.9562 17.8856C24.9562 17.8856 25.1421 17.5948 25.1934 17.8856C25.2448 18.1764 25.3536 18.5497 25.4306 18.8762C25.4708 19.0453 25.5841 19.0297 25.5841 19.0297H31.0395C31.0395 19.0297 31.2488 19.0989 31.2488 18.8762V17.5089C31.2488 17.5089 31.2895 17.3554 31.0674 17.3554H30.4395C30.3028 17.3554 30.3279 17.1043 30.3279 17.1043V9.5421C30.3279 6.24934 28.206 4.90991 24.9841 4.90991C23.8456 4.90991 22.7501 5.06785 21.6774 5.48196C21.6774 5.48196 21.443 5.62539 21.5798 5.30058C21.6451 5.14543 21.7053 4.96572 21.7053 4.96572C21.7053 4.96572 21.7785 4.81113 21.6077 4.74248C21.4196 4.67384 20.3319 4.34401 20.1287 4.2681C20.0945 4.25529 20.0654 4.26194 20.045 4.2681V4.26808ZM43.778 4.26808C43.7167 4.28661 43.7082 4.36575 43.7082 4.36575C43.7082 4.36575 42.0468 8.45044 41.9781 8.62122C41.9101 8.79255 42.034 8.8026 42.034 8.8026C42.034 8.8026 43.4147 9.29261 43.5687 9.36069C43.7227 9.42934 43.778 9.31886 43.778 9.31886C44.5298 8.39298 45.272 7.812 46.8894 7.812C48.1551 7.812 48.7869 8.28638 48.7869 9.43048V9.863C48.7869 10.017 48.7449 10.0304 48.7449 10.0304L44.8522 10.1281C42.2917 10.1281 40.22 11.9698 40.22 15.2068C40.22 17.8013 42.1784 19.4483 44.7964 19.4483C46.3434 19.4483 47.5528 18.7814 48.6752 17.8856C48.6752 17.8856 48.8744 17.5948 48.9263 17.8856C48.9777 18.1758 49.0859 18.5497 49.1635 18.8762C49.2032 19.0459 49.317 19.0297 49.317 19.0297H54.7584C54.7584 19.0297 54.9817 19.0983 54.9817 18.8762V17.5089C54.9817 17.5089 55.0223 17.3554 54.8003 17.3554H54.1724C54.0357 17.3554 54.0608 17.1043 54.0608 17.1043V9.5421C54.0608 6.24934 51.9255 4.90991 48.7031 4.90991C47.5651 4.90991 46.4835 5.06785 45.4103 5.48196C45.4103 5.48196 45.1759 5.62539 45.3127 5.30058C45.3779 5.14543 45.4243 4.95177 45.4243 4.95177C45.4243 4.95177 45.4974 4.81113 45.3266 4.74248C45.1385 4.6744 44.0642 4.34401 43.8616 4.2681C43.8272 4.25529 43.7983 4.26194 43.7779 4.2681L43.778 4.26808ZM113.944 4.26808C113.883 4.28661 113.875 4.36575 113.875 4.36575C113.875 4.36575 112.213 8.45044 112.145 8.62122C112.076 8.79255 112.2 8.8026 112.2 8.8026C112.2 8.8026 113.581 9.29261 113.735 9.36069C113.889 9.42934 113.944 9.31886 113.944 9.31886C114.696 8.39298 115.438 7.812 117.056 7.812C118.322 7.812 118.953 8.28638 118.953 9.43048V9.863C118.953 10.017 118.911 10.0304 118.911 10.0304L115.019 10.1281C112.458 10.1281 110.386 11.9698 110.386 15.2068C110.386 17.8013 112.345 19.4483 114.963 19.4483C116.51 19.4483 117.719 18.7814 118.842 17.8856C118.842 17.8856 119.041 17.5948 119.093 17.8856C119.144 18.1758 119.252 18.5497 119.33 18.8762C119.37 19.0459 119.483 19.0297 119.483 19.0297H124.925C124.925 19.0297 125.148 19.0983 125.148 18.8762V17.5089C125.148 17.5089 125.189 17.3554 124.967 17.3554H124.339C124.202 17.3554 124.227 17.1043 124.227 17.1043V9.5421C124.227 6.24934 122.092 4.90991 118.87 4.90991C117.732 4.90991 116.65 5.06785 115.577 5.48196C115.577 5.48196 115.342 5.62539 115.479 5.30058C115.544 5.14543 115.591 4.95177 115.591 4.95177C115.591 4.95177 115.664 4.81113 115.493 4.74248C115.305 4.6744 114.231 4.34401 114.028 4.2681C113.994 4.25529 113.965 4.26194 113.944 4.2681L113.944 4.26808ZM77.6543 4.90989C73.0807 4.90989 69.548 7.6719 69.548 12.1651C69.548 16.6851 73.0807 19.4483 77.6543 19.4483C82.2575 19.4483 85.8025 16.6851 85.8025 12.1651C85.8025 7.6719 82.2575 4.90989 77.6543 4.90989ZM96.9644 4.90989C95.0417 4.90989 93.6002 5.97697 92.1787 7.05855C92.1787 7.05855 92.0392 7.25333 92.0392 7.03065V5.02151C92.0392 4.86748 91.8997 4.95175 91.8997 4.95175L85.8304 6.55627C85.8304 6.55627 85.7048 6.55627 85.7048 6.70975V8.10498C85.7048 8.25902 85.8444 8.1887 85.8444 8.1887C85.8444 8.1887 86.3785 8.06201 86.5838 7.99336C86.7887 7.92472 86.7234 8.09103 86.7234 8.09103V17.2298C86.7234 17.2298 86.7626 17.3554 86.6257 17.3554H85.8025C85.8025 17.3554 85.7048 17.3102 85.7048 17.481V18.8902C85.7048 19.0782 85.8025 19.0297 85.8025 19.0297H93.0019C93.0019 19.0297 93.0996 19.052 93.0996 18.932V17.481C93.0996 17.3102 92.96 17.3554 92.96 17.3554H92.095C91.9583 17.3554 91.9834 17.2577 91.9834 17.2577V9.52812C91.9834 9.39139 92.0811 9.31884 92.0811 9.31884C92.7374 8.76632 93.4127 8.25846 94.3413 8.25846C95.1176 8.25846 95.8621 8.67759 95.8621 9.48627V17.2577C95.8621 17.2577 95.9014 17.3554 95.7645 17.3554H94.9273C94.9273 17.3554 94.7739 17.3442 94.7739 17.481V18.932C94.7739 19.052 94.8994 19.0297 94.8994 19.0297H101.973C101.973 19.0297 102.113 19.0782 102.113 18.8902V17.481C102.113 17.3275 101.987 17.3554 101.987 17.3554H101.234C101.114 17.3554 101.136 17.2159 101.136 17.2159V8.87236C101.136 7.33704 100.618 4.90989 96.9644 4.90989ZM10.5993 4.92382C9.32345 4.92382 8.35349 5.44229 7.12512 6.17953C7.12512 6.17953 6.9856 6.2465 6.9856 6.10977V5.06334C6.9856 4.90987 6.84607 4.95173 6.84607 4.95173L0.832603 6.50044C0.832603 6.50044 0.707031 6.50044 0.707031 6.65391V8.04915C0.707031 8.23723 0.846555 8.17472 0.846555 8.17472L1.54417 8.00729C1.54417 8.00729 1.7116 7.93083 1.7116 8.11891V21.4992C1.7116 21.4992 1.7183 21.6946 1.53022 21.6946H0.87446C0.87446 21.6946 0.707031 21.6705 0.707031 21.8759V23.1875C0.707031 23.3755 0.930269 23.3688 0.930269 23.3688H8.70174C8.70174 23.3688 8.85521 23.3102 8.85521 23.1735V21.8759C8.85521 21.6879 8.68778 21.6946 8.68778 21.6946H7.15302C6.98169 21.6946 6.9856 21.4574 6.9856 21.4574V19.0436C6.9856 18.9069 7.09721 18.9599 7.09721 18.9599C7.86906 19.3528 8.95679 19.4622 9.77607 19.4622C14.0338 19.4622 16.5011 15.5276 16.5011 11.5931C16.5011 7.60267 13.9076 4.92382 10.5993 4.92382ZM109.34 4.93775C109.305 4.93463 109.27 4.95168 109.27 4.95168L103.229 6.61201C103.229 6.61201 103.117 6.61759 103.117 6.73758V8.09096C103.117 8.27904 103.285 8.20258 103.285 8.20258C103.285 8.20258 103.681 8.11775 104.024 8.06306C104.197 8.03457 104.15 8.19477 104.15 8.3142V17.2158C104.15 17.2158 104.196 17.3553 104.024 17.3553H103.173C103.173 17.3553 103.062 17.3068 103.062 17.4949V18.918C103.062 19.0888 103.173 19.0296 103.173 19.0296H110.247C110.418 19.0296 110.359 18.8901 110.359 18.8901C110.359 18.8901 110.354 17.7164 110.359 17.4949C110.363 17.3062 110.233 17.3553 110.233 17.3553H109.535C109.365 17.3553 109.41 17.2298 109.41 17.2298V5.04935C109.41 4.96368 109.375 4.94073 109.34 4.93773V4.93775ZM61.2463 6.66784C63.4045 6.66784 64.288 10.8809 64.288 12.3883C64.288 13.7272 63.8593 14.2579 62.7951 14.2579C60.6374 14.2579 59.7395 10.0443 59.7395 8.53746C59.7395 7.19748 60.1821 6.66784 61.2463 6.66784ZM76.7614 7.03061C79.6673 7.03061 80.5425 12.1656 80.5425 14.1742C80.5425 15.6811 80.1283 17.3274 78.5752 17.3274C75.6697 17.3274 74.808 12.1924 74.808 10.1838C74.808 9.15081 74.8036 7.03061 76.7614 7.03061ZM7.80878 7.8817C8.70062 7.8817 11.2411 8.1334 11.2411 13.1557C11.2411 16.2816 10.4832 17.3414 8.75755 17.3414C7.37682 17.3414 6.9856 16.3089 6.9856 15.0811V8.23051C6.9856 8.04187 7.13907 7.99332 7.13907 7.99332L7.80878 7.8817ZM24.2307 11.8023H24.9283C25.0991 11.8023 25.0679 11.9139 25.0679 11.9139V14.4812C25.0679 15.5415 24.8005 16.5182 23.4773 16.5182C22.067 16.5182 21.7611 15.2904 21.7611 14.2021C21.7611 12.779 22.792 11.8023 24.2307 11.8023ZM47.9637 11.8023H48.6613C48.8321 11.8023 48.7869 11.9139 48.7869 11.9139V14.4812C48.7869 15.5415 48.5335 16.5182 47.2103 16.5182C45.801 16.5182 45.4802 15.291 45.4802 14.2021C45.4802 12.779 46.5255 11.8023 47.9637 11.8023ZM118.13 11.8023H118.828C118.999 11.8023 118.953 11.9139 118.953 11.9139V14.4812C118.953 15.5415 118.701 16.5182 117.377 16.5182C115.968 16.5182 115.647 15.291 115.647 14.2021C115.647 12.779 116.692 11.8023 118.13 11.8023ZM62.1393 19.6436C62.1737 19.6437 62.1951 19.6575 62.1951 19.6575C63.1427 20.2346 63.8275 20.6699 63.8275 21.9038C63.8275 22.6009 63.4586 22.9363 62.7393 22.9363C61.9333 22.9363 61.5533 22.1823 61.5533 21.4853C61.5533 20.8697 61.7748 19.9483 61.9858 19.7273C62.0497 19.66 62.1048 19.6435 62.1393 19.6436V19.6436Z" fill="#F3F3F3"/>
<path d="M125.813 3.18035C125.721 3.13068 125.574 3.10613 125.372 3.10613H125.061V3.82774H125.39C125.544 3.82774 125.66 3.81265 125.737 3.78367C125.879 3.72898 125.95 3.62518 125.95 3.4717C125.95 3.32715 125.904 3.23004 125.813 3.18037V3.18035ZM125.427 2.85501C125.678 2.85501 125.862 2.87956 125.978 2.92756C126.188 3.01462 126.292 3.18484 126.292 3.43877C126.292 3.61848 126.227 3.75186 126.096 3.83669C126.027 3.8819 125.93 3.91427 125.807 3.93436C125.961 3.95945 126.075 4.02477 126.146 4.13137C126.218 4.23741 126.254 4.34177 126.254 4.44278V4.59012C126.254 4.63644 126.256 4.68611 126.26 4.73969C126.263 4.79271 126.27 4.82731 126.279 4.84405L126.292 4.86915H125.96C125.958 4.86245 125.957 4.85575 125.955 4.84905C125.953 4.84236 125.952 4.83512 125.95 4.82673L125.943 4.76199V4.60293C125.943 4.37077 125.878 4.21785 125.749 4.14306C125.673 4.10011 125.538 4.07888 125.346 4.07888H125.061V4.86915H124.719V2.85498H125.427L125.427 2.85501ZM124.345 2.75622C124.037 3.06373 123.883 3.43487 123.883 3.87018C123.883 4.30828 124.036 4.68165 124.342 4.99083C124.65 5.29946 125.023 5.45405 125.463 5.45405C125.902 5.45405 126.276 5.29946 126.583 4.99083C126.891 4.68165 127.044 4.30828 127.044 3.87018C127.044 3.43487 126.891 3.06373 126.583 2.75622C126.274 2.4476 125.9 2.293 125.463 2.293C125.026 2.293 124.654 2.4476 124.345 2.75622ZM126.758 5.16607C126.401 5.52549 125.968 5.70464 125.46 5.70464C124.952 5.70464 124.521 5.52549 124.164 5.16607C123.81 4.80889 123.633 4.37581 123.633 3.86739C123.633 3.36343 123.811 2.93314 124.17 2.57596C124.526 2.21989 124.955 2.04242 125.46 2.04242C125.968 2.04242 126.401 2.21989 126.758 2.57596C127.116 2.93146 127.295 3.36231 127.295 3.86739C127.295 4.37414 127.116 4.80722 126.758 5.16607Z" fill="#F3F3F3"/>
</g>
<defs>
<clipPath id="clip0_626_20391">
<rect width="128" height="25" fill="white"/>
</clipPath>
</defs>
</svg>
