<svg width="81" height="80" viewBox="0 0 81 80" fill="none" xmlns="http://www.w3.org/2000/svg">
<rect width="80" height="80" transform="translate(0.333008)" fill="#F3F3F3"/>
<path d="M49.2394 27.3352C47.8552 25.7574 45.3531 25.0811 42.1522 25.0811H32.8621C32.2072 25.0811 31.6507 25.5573 31.5481 26.2031L27.68 50.7361C27.6031 51.2198 27.9776 51.6581 28.468 51.6581H34.2033L35.6437 42.5218L35.5991 42.8079C35.7016 42.1621 36.254 41.6858 36.908 41.6858H39.6335C44.9876 41.6858 49.1799 39.5111 50.4045 33.2201C50.4409 33.0341 50.4723 32.853 50.4996 32.676C50.345 32.5942 50.345 32.5942 50.4996 32.676C50.8643 30.3508 50.4971 28.7682 49.2394 27.3352Z" fill="#27346A"/>
<path d="M37.8383 31.8384C37.9913 31.7656 38.1616 31.7251 38.3402 31.7251H45.6234C46.4859 31.7251 47.2905 31.7813 48.0256 31.8996C48.2364 31.9335 48.4407 31.9723 48.6391 32.017C48.8376 32.0608 49.0302 32.1104 49.2171 32.165C49.3105 32.1923 49.4023 32.2204 49.4925 32.2502C49.8538 32.3709 50.1904 32.5115 50.4996 32.676C50.8643 30.35 50.4971 28.7682 49.2394 27.3352C47.8544 25.7574 45.3531 25.0811 42.1522 25.0811H32.8612C32.2072 25.0811 31.6507 25.5573 31.5481 26.2031L27.68 50.7353C27.6031 51.2198 27.9776 51.6573 28.4672 51.6573H34.2033L37.1917 32.7066C37.2529 32.318 37.5026 31.9996 37.8383 31.8384Z" fill="#27346A"/>
<path d="M50.4049 33.2199C49.1802 39.51 44.9879 41.6856 39.6338 41.6856H36.9076C36.2535 41.6856 35.7011 42.1618 35.5994 42.8076L33.8075 54.1674C33.7406 54.5908 34.068 54.9745 34.4963 54.9745H39.3312C39.9034 54.9745 40.3904 54.5577 40.4797 53.993L40.5268 53.7466L41.4381 47.9716L41.4968 47.6524C41.5861 47.0876 42.0731 46.6709 42.6453 46.6709H43.3689C48.0524 46.6709 51.7196 44.7682 52.7913 39.2653C53.2386 36.9657 53.0071 35.0456 51.8238 33.697C51.4649 33.2885 51.0192 32.9511 50.5 32.6758C50.4718 32.8536 50.4412 33.0338 50.4049 33.2199Z" fill="#2790C3"/>
<path d="M49.2176 32.1652C49.0308 32.1106 48.8381 32.061 48.6396 32.0172C48.4412 31.9733 48.2361 31.9345 48.0261 31.9006C47.2902 31.7815 46.4864 31.7253 45.6232 31.7253H38.3407C38.1613 31.7253 37.991 31.7658 37.8388 31.8394C37.5023 32.0006 37.2534 32.3182 37.1922 32.7076L35.6443 42.522L35.5996 42.8081C35.7013 42.1623 36.2537 41.686 36.9077 41.686H39.634C44.9881 41.686 49.1804 39.5113 50.4051 33.2203C50.4414 33.0342 50.472 32.854 50.5001 32.6762C50.1901 32.5125 49.8543 32.3711 49.493 32.2512C49.4029 32.2214 49.3111 32.1925 49.2176 32.1652Z" fill="#1F264F"/>
</svg>
