<svg width="21" height="20" viewBox="0 0 21 20" fill="none" xmlns="http://www.w3.org/2000/svg">
<path fill-rule="evenodd" clip-rule="evenodd" d="M9.21261 10.7228C10.3559 10.7228 11.2826 9.79601 11.2826 8.65276C11.2826 7.50952 10.3559 6.58273 9.21261 6.58273C8.06936 6.58273 7.14258 7.50952 7.14258 8.65276C7.14258 9.79601 8.06936 10.7228 9.21261 10.7228Z" stroke="#141511" stroke-width="1.5" stroke-linecap="round" stroke-linejoin="round"/>
<path d="M15.4097 9.10296C15.5923 6.24679 13.8001 3.63542 11.0693 2.77877C8.33855 1.92211 5.37587 3.04186 3.89435 5.49057C2.41283 7.93928 2.79587 11.0833 4.82198 13.1046L9.21297 17.5031" stroke="#141511" stroke-width="1.5" stroke-linecap="round" stroke-linejoin="round"/>
<path d="M15.0848 11.6674V14.1684" stroke="#141511" stroke-width="1.5" stroke-linecap="round" stroke-linejoin="round"/>
<path d="M18.0028 14.817C18.0028 14.4588 17.7124 14.1684 17.3542 14.1684H12.8156C12.4574 14.1684 12.167 14.4588 12.167 14.817" stroke="#141511" stroke-width="1.5" stroke-linecap="round" stroke-linejoin="round"/>
<path fill-rule="evenodd" clip-rule="evenodd" d="M13.0007 17.5031H17.1691C17.6295 17.5031 18.0028 17.1299 18.0028 16.6694V13.6974C18.0027 13.3595 17.9344 13.0252 17.8018 12.7145L17.5701 12.1734C17.439 11.8666 17.1376 11.6675 16.8039 11.6674H13.3658C13.0319 11.6672 12.7301 11.8663 12.5988 12.1734L12.3679 12.7136C12.2354 13.0244 12.1671 13.3587 12.167 13.6965V16.6694C12.167 17.1299 12.5402 17.5031 13.0007 17.5031Z" stroke="#141511" stroke-width="1.5" stroke-linecap="round" stroke-linejoin="round"/>
</svg>
