<svg width="20" height="21" viewBox="0 0 20 21" fill="none" xmlns="http://www.w3.org/2000/svg">
<path d="M10.9375 14.5625C10.9375 14.7479 10.8825 14.9292 10.7795 15.0833C10.6765 15.2375 10.5301 15.3577 10.3588 15.4286C10.1875 15.4996 9.99896 15.5182 9.81711 15.482C9.63525 15.4458 9.4682 15.3565 9.33709 15.2254C9.20598 15.0943 9.11669 14.9273 9.08052 14.7454C9.04434 14.5635 9.06291 14.375 9.13387 14.2037C9.20482 14.0324 9.32499 13.886 9.47916 13.783C9.63333 13.68 9.81458 13.625 10 13.625C10.2486 13.625 10.4871 13.7238 10.6629 13.8996C10.8387 14.0754 10.9375 14.3139 10.9375 14.5625ZM10 6.125C8.27657 6.125 6.875 7.38672 6.875 8.9375V9.25C6.875 9.41576 6.94085 9.57473 7.05806 9.69194C7.17527 9.80915 7.33424 9.875 7.5 9.875C7.66576 9.875 7.82473 9.80915 7.94194 9.69194C8.05915 9.57473 8.125 9.41576 8.125 9.25V8.9375C8.125 8.07812 8.96641 7.375 10 7.375C11.0336 7.375 11.875 8.07812 11.875 8.9375C11.875 9.79687 11.0336 10.5 10 10.5C9.83424 10.5 9.67527 10.5658 9.55806 10.6831C9.44085 10.8003 9.375 10.9592 9.375 11.125V11.75C9.375 11.9158 9.44085 12.0747 9.55806 12.1919C9.67527 12.3092 9.83424 12.375 10 12.375C10.1658 12.375 10.3247 12.3092 10.4419 12.1919C10.5592 12.0747 10.625 11.9158 10.625 11.75V11.6937C12.05 11.432 13.125 10.2953 13.125 8.9375C13.125 7.38672 11.7234 6.125 10 6.125ZM18.125 10.5C18.125 12.107 17.6485 13.6779 16.7557 15.014C15.8629 16.3502 14.594 17.3916 13.1093 18.0065C11.6247 18.6215 9.99099 18.7824 8.41489 18.4689C6.8388 18.1554 5.39106 17.3815 4.25476 16.2452C3.11846 15.1089 2.34463 13.6612 2.03112 12.0851C1.71762 10.509 1.87852 8.87535 2.49348 7.3907C3.10844 5.90605 4.14985 4.6371 5.486 3.74431C6.82214 2.85152 8.39303 2.375 10 2.375C12.1542 2.37727 14.2195 3.23403 15.7427 4.75727C17.266 6.28051 18.1227 8.34581 18.125 10.5ZM16.875 10.5C16.875 9.14025 16.4718 7.81104 15.7164 6.68045C14.9609 5.54987 13.8872 4.66868 12.631 4.14833C11.3747 3.62798 9.99238 3.49183 8.65876 3.7571C7.32514 4.02237 6.10013 4.67715 5.13864 5.63864C4.17716 6.60013 3.52238 7.82513 3.2571 9.15875C2.99183 10.4924 3.12798 11.8747 3.64833 13.1309C4.16868 14.3872 5.04987 15.4609 6.18046 16.2164C7.31105 16.9718 8.64026 17.375 10 17.375C11.8227 17.3729 13.5702 16.6479 14.8591 15.3591C16.1479 14.0702 16.8729 12.3227 16.875 10.5Z" fill="#141511"/>
</svg>
