<svg width="15" height="14" viewBox="0 0 15 14" fill="none" xmlns="http://www.w3.org/2000/svg">
<path d="M13.6419 14L8.52728 8.88525C8.12011 9.22143 7.65187 9.48452 7.12256 9.67453C6.59324 9.86454 6.04567 9.95955 5.47984 9.95955C4.08802 9.95955 2.91008 9.47767 1.94605 8.51392C0.982017 7.55018 0.5 6.37253 0.5 4.98099C0.5 3.58959 0.981881 2.41154 1.94564 1.44684C2.90941 0.482281 4.08707 0 5.47862 0C6.87005 0 8.04811 0.482009 9.01283 1.44603C9.9774 2.41005 10.4597 3.58796 10.4597 4.97977C10.4597 5.56133 10.3621 6.11677 10.1669 6.64608C9.97163 7.17538 9.71111 7.63575 9.38538 8.02716L14.5 13.1417L13.6419 14ZM5.47984 8.73827C6.52911 8.73827 7.41782 8.37413 8.14597 7.64586C8.87425 6.91772 9.23839 6.02902 9.23839 4.97977C9.23839 3.93052 8.87425 3.04183 8.14597 2.31369C7.41782 1.58541 6.52911 1.22128 5.47984 1.22128C4.43058 1.22128 3.54187 1.58541 2.81372 2.31369C2.08544 3.04183 1.72129 3.93052 1.72129 4.97977C1.72129 6.02902 2.08544 6.91772 2.81372 7.64586C3.54187 8.37413 4.43058 8.73827 5.47984 8.73827Z" fill="#959694"/>
</svg>
