<svg width="48" height="48" viewBox="0 0 48 48" fill="none" xmlns="http://www.w3.org/2000/svg">
<rect width="48" height="48" fill="#141511"/>
<mask id="mask0_548_10881" style="mask-type:alpha" maskUnits="userSpaceOnUse" x="12" y="12" width="24" height="24">
<rect x="12" y="12" width="24" height="24" fill="#D9D9D9"/>
</mask>
<g mask="url(#mask0_548_10881)">
<path d="M31.5423 32.577L25.2616 26.296C24.7616 26.7088 24.1866 27.0319 23.5366 27.2653C22.8866 27.4986 22.2141 27.6153 21.5193 27.6153C19.8101 27.6153 18.3636 27.0235 17.1798 25.84C15.996 24.6565 15.4041 23.2103 15.4041 21.5015C15.4041 19.7928 15.9958 18.3462 17.1793 17.1615C18.3628 15.977 19.809 15.3848 21.5178 15.3848C23.2265 15.3848 24.6731 15.9767 25.8578 17.1605C27.0423 18.3443 27.6346 19.7908 27.6346 21.5C27.6346 22.2142 27.5147 22.8963 27.2751 23.5463C27.0352 24.1963 26.7153 24.7616 26.3153 25.2423L32.5961 31.523L31.5423 32.577ZM21.5193 26.1155C22.8078 26.1155 23.8991 25.6683 24.7933 24.774C25.6876 23.8798 26.1348 22.7885 26.1348 21.5C26.1348 20.2115 25.6876 19.1202 24.7933 18.226C23.8991 17.3317 22.8078 16.8845 21.5193 16.8845C20.2308 16.8845 19.1395 17.3317 18.2453 18.226C17.351 19.1202 16.9038 20.2115 16.9038 21.5C16.9038 22.7885 17.351 23.8798 18.2453 24.774C19.1395 25.6683 20.2308 26.1155 21.5193 26.1155Z" fill="white"/>
</g>
</svg>
