<svg width="22" height="23" viewBox="0 0 22 23" fill="none" xmlns="http://www.w3.org/2000/svg">
<g clip-path="url(#clip0_548_13380)">
<path d="M11 21.0859C16.5228 21.0859 21 16.6088 21 11.0859C21 5.56309 16.5228 1.08594 11 1.08594C5.47715 1.08594 1 5.56309 1 11.0859C1 16.6088 5.47715 21.0859 11 21.0859Z" fill="#D80027"/>
<path d="M10.9994 15.868C13.6408 15.868 15.782 13.7267 15.782 11.0854C15.782 8.44398 13.6408 6.30273 10.9994 6.30273C8.35805 6.30273 6.2168 8.44398 6.2168 11.0854C6.2168 13.7267 8.35805 15.868 10.9994 15.868Z" fill="#F0F0F0"/>
<path d="M11.5895 9.25781L12.4099 10.3885L13.7387 9.95762L12.917 11.0873L13.7373 12.2179L12.409 11.7854L11.5872 12.9151L11.5881 11.5182L10.2598 11.0857L11.5886 10.6548L11.5895 9.25781Z" fill="#D80027"/>
<path d="M12.0867 13.9118C10.5259 13.9118 9.26059 12.6465 9.26059 11.0857C9.26059 9.52492 10.5259 8.25961 12.0867 8.25961C12.5733 8.25961 13.0313 8.38266 13.431 8.5993C12.8039 7.98598 11.9463 7.60742 10.9997 7.60742C9.07879 7.60742 7.52148 9.16469 7.52148 11.0857C7.52148 13.0066 9.07879 14.5639 10.9997 14.5639C11.9463 14.5639 12.8039 14.1854 13.431 13.572C13.0313 13.7888 12.5733 13.9118 12.0867 13.9118Z" fill="#D80027"/>
</g>
<rect x="0.5" y="0.585938" width="21" height="21" rx="10.5" stroke="white"/>
<defs>
<clipPath id="clip0_548_13380">
<rect x="1" y="1.08594" width="20" height="20" rx="10" fill="white"/>
</clipPath>
</defs>
</svg>
