<svg width="21" height="22" viewBox="0 0 21 22" fill="none" xmlns="http://www.w3.org/2000/svg">
<g clip-path="url(#clip0_832_41822)">
<path d="M10 21C15.5228 21 20 16.5228 20 11C20 5.47715 15.5228 1 10 1C4.47715 1 0 5.47715 0 11C0 16.5228 4.47715 21 10 21Z" fill="#F0F0F0"/>
<path d="M9.56445 11H19.9992C19.9992 10.0974 19.8789 9.22302 19.6547 8.39127H9.56445V11Z" fill="#D80027"/>
<path d="M9.56445 5.78258H18.5315C17.9193 4.78368 17.1366 3.90075 16.2241 3.17387H9.56445V5.78258Z" fill="#D80027"/>
<path d="M10.0002 20.9999C12.3537 20.9999 14.5169 20.1865 16.2251 18.826H3.77539C5.48359 20.1865 7.64676 20.9999 10.0002 20.9999Z" fill="#D80027"/>
<path d="M1.46699 16.2174H18.5315C19.023 15.4154 19.4041 14.5389 19.6548 13.6086H0.34375C0.594414 14.5389 0.975547 15.4154 1.46699 16.2174Z" fill="#D80027"/>
<path d="M4.63219 2.56164H5.54348L4.69582 3.17746L5.01961 4.17391L4.17199 3.55809L3.32437 4.17391L3.60406 3.31309C2.85773 3.93477 2.20359 4.66313 1.66453 5.47469H1.95652L1.41695 5.86668C1.33289 6.00691 1.25227 6.14937 1.175 6.29395L1.43266 7.08695L0.951953 6.7377C0.832461 6.99086 0.723164 7.24973 0.624922 7.51398L0.908789 8.38773H1.95652L1.10887 9.00356L1.43266 10L0.585039 9.38418L0.0773047 9.75309C0.0264844 10.1616 0 10.5777 0 11H10C10 5.47719 10 4.82609 10 1C8.02453 1 6.18301 1.57305 4.63219 2.56164ZM5.01961 10L4.17199 9.38418L3.32437 10L3.64816 9.00356L2.80051 8.38773H3.84824L4.17199 7.39129L4.49574 8.38773H5.54348L4.69582 9.00356L5.01961 10ZM4.69582 6.09051L5.01961 7.08695L4.17199 6.47113L3.32437 7.08695L3.64816 6.09051L2.80051 5.47469H3.84824L4.17199 4.47824L4.49574 5.47469H5.54348L4.69582 6.09051ZM8.60656 10L7.75895 9.38418L6.91133 10L7.23512 9.00356L6.38746 8.38773H7.4352L7.75895 7.39129L8.0827 8.38773H9.13043L8.28277 9.00356L8.60656 10ZM8.28277 6.09051L8.60656 7.08695L7.75895 6.47113L6.91133 7.08695L7.23512 6.09051L6.38746 5.47469H7.4352L7.75895 4.47824L8.0827 5.47469H9.13043L8.28277 6.09051ZM8.28277 3.17746L8.60656 4.17391L7.75895 3.55809L6.91133 4.17391L7.23512 3.17746L6.38746 2.56164H7.4352L7.75895 1.5652L8.0827 2.56164H9.13043L8.28277 3.17746Z" fill="#0052B4"/>
</g>
<rect x="-0.5" y="0.5" width="21" height="21" rx="10.5" stroke="white"/>
<defs>
<clipPath id="clip0_832_41822">
<rect y="1" width="20" height="20" rx="10" fill="white"/>
</clipPath>
</defs>
</svg>
