<svg width="36" height="36" viewBox="0 0 36 36" fill="none" xmlns="http://www.w3.org/2000/svg">
<mask id="mask0_493_7898" style="mask-type:alpha" maskUnits="userSpaceOnUse" x="0" y="0" width="36" height="36">
<rect width="36" height="36" fill="#D9D9D9"/>
</mask>
<g mask="url(#mask0_493_7898)">
<path d="M9.0345 25.9384C10.3095 24.9924 11.6985 24.2453 13.2015 23.697C14.7043 23.149 16.3038 22.875 18 22.875C19.6962 22.875 21.2957 23.149 22.7985 23.697C24.3015 24.2453 25.6905 24.9924 26.9655 25.9384C27.898 24.9134 28.6369 23.7269 29.1821 22.3789C29.7274 21.0309 30 19.5712 30 18C30 14.675 28.8313 11.8438 26.4938 9.50625C24.1562 7.16875 21.325 6 18 6C14.675 6 11.8438 7.16875 9.50625 9.50625C7.16875 11.8438 6 14.675 6 18C6 19.5712 6.27262 21.0309 6.81787 22.3789C7.36312 23.7269 8.102 24.9134 9.0345 25.9384ZM18.0004 19.125C16.6309 19.125 15.476 18.655 14.5357 17.715C13.5952 16.7748 13.125 15.6199 13.125 14.2504C13.125 12.8809 13.595 11.726 14.535 10.7857C15.4753 9.84525 16.6301 9.375 17.9996 9.375C19.3691 9.375 20.524 9.845 21.4643 10.785C22.4048 11.7252 22.875 12.8801 22.875 14.2496C22.875 15.6191 22.405 16.774 21.465 17.7143C20.5247 18.6548 19.3699 19.125 18.0004 19.125ZM18 32.25C16.0212 32.25 14.165 31.8779 12.4312 31.1336C10.6975 30.3894 9.18938 29.3759 7.90688 28.0931C6.62413 26.8106 5.61063 25.3025 4.86638 23.5688C4.12213 21.835 3.75 19.9788 3.75 18C3.75 16.0212 4.12213 14.165 4.86638 12.4312C5.61063 10.6975 6.62413 9.18937 7.90688 7.90687C9.18938 6.62412 10.6975 5.61063 12.4312 4.86638C14.165 4.12213 16.0212 3.75 18 3.75C19.9788 3.75 21.835 4.12213 23.5688 4.86638C25.3025 5.61063 26.8106 6.62412 28.0931 7.90687C29.3759 9.18937 30.3894 10.6975 31.1336 12.4312C31.8779 14.165 32.25 16.0212 32.25 18C32.25 19.9788 31.8779 21.835 31.1336 23.5688C30.3894 25.3025 29.3759 26.8106 28.0931 28.0931C26.8106 29.3759 25.3025 30.3894 23.5688 31.1336C21.835 31.8779 19.9788 32.25 18 32.25ZM18 30C19.3538 30 20.659 29.7823 21.9157 29.3468C23.1725 28.911 24.2884 28.3019 25.2634 27.5194C24.2884 26.7654 23.187 26.1779 21.9593 25.7569C20.7313 25.3356 19.4115 25.125 18 25.125C16.5885 25.125 15.2664 25.3331 14.0336 25.7494C12.8009 26.1659 11.7019 26.7559 10.7366 27.5194C11.7116 28.3019 12.8275 28.911 14.0842 29.3468C15.341 29.7823 16.6462 30 18 30ZM18 16.875C18.7463 16.875 19.3702 16.624 19.872 16.122C20.374 15.6202 20.625 14.9963 20.625 14.25C20.625 13.5037 20.374 12.8798 19.872 12.378C19.3702 11.876 18.7463 11.625 18 11.625C17.2537 11.625 16.6298 11.876 16.128 12.378C15.626 12.8798 15.375 13.5037 15.375 14.25C15.375 14.9963 15.626 15.6202 16.128 16.122C16.6298 16.624 17.2537 16.875 18 16.875Z" fill="#141511"/>
</g>
</svg>
