<svg width="45" height="15" viewBox="0 0 45 15" fill="none" xmlns="http://www.w3.org/2000/svg">
<g clip-path="url(#clip0_474_13316)">
<path d="M28.9612 0.5C25.8908 0.5 23.1341 2.09765 23.1341 5.02941C23.1341 8.40588 28.0038 8.63647 28.0038 10.3165C28.0038 11.0247 27.1784 11.6671 25.7918 11.6671C23.8109 11.6671 22.3252 10.7776 22.3252 10.7776L21.6979 13.7424C21.6979 13.7424 23.3982 14.5 25.6762 14.5C29.0437 14.5 31.6849 12.8365 31.6849 9.83882C31.6849 6.28118 26.7987 6.05059 26.7987 4.48588C26.7987 3.92588 27.4755 3.31647 28.8621 3.31647C30.4303 3.31647 31.7179 3.95882 31.7179 3.95882L32.3452 1.09294C32.3287 1.09294 30.9256 0.5 28.9612 0.5ZM0.832537 0.714118L0.75 1.14235C0.75 1.14235 2.03758 1.37294 3.20961 1.85059C4.71178 2.39412 4.81083 2.70706 5.07494 3.67882L7.83168 14.2694H11.5293L17.1914 0.714118H13.5102L9.8621 9.93765L8.37643 2.11412C8.24437 1.22471 7.55106 0.714118 6.69267 0.714118H0.832537ZM18.6771 0.714118L15.7883 14.2694H19.3043L22.1766 0.714118H18.6771ZM38.2549 0.714118C37.413 0.714118 36.9673 1.15882 36.6371 1.94941L31.4868 14.2694H35.168L35.8778 12.2106H40.3678L40.797 14.2694H44.049L41.2262 0.714118H38.2549ZM38.7336 4.38706L39.8231 9.47647H36.9013L38.7336 4.38706Z" fill="#1434CB"/>
</g>
<defs>
<clipPath id="clip0_474_13316">
<rect width="43.299" height="14" fill="white" transform="translate(0.75 0.5)"/>
</clipPath>
</defs>
</svg>
