<svg width="25" height="26" viewBox="0 0 25 26" fill="none" xmlns="http://www.w3.org/2000/svg">
<g clip-path="url(#clip0_253_2736)">
<path d="M1.01209 12.8552C1.01153 14.8875 1.54253 16.8718 2.55221 18.6208L0.915527 24.5966L7.03103 22.9931C8.7225 23.9139 10.6177 24.3964 12.5435 24.3965H12.5486C18.9062 24.3965 24.0815 19.2231 24.0842 12.8643C24.0855 9.78304 22.8866 6.88561 20.7084 4.70573C18.5306 2.52605 15.6342 1.32501 12.5481 1.32361C6.18972 1.32361 1.01481 6.49673 1.01218 12.8552" fill="url(#paint0_linear_253_2736)"/>
<path d="M0.600313 12.8515C0.599656 14.9568 1.14969 17.0121 2.19537 18.8237L0.5 25.0138L6.83478 23.3528C8.58022 24.3045 10.5454 24.8062 12.5451 24.807H12.5502C19.136 24.807 24.4972 19.4475 24.5 12.8611C24.5011 9.66906 23.2591 6.66747 21.0031 4.4095C18.7468 2.15181 15.7468 0.907563 12.5502 0.90625C5.96337 0.90625 0.602938 6.265 0.600313 12.8515ZM4.37291 18.5118L4.13637 18.1363C3.14206 16.5553 2.61725 14.7283 2.618 12.8523C2.62006 7.37772 7.07544 2.92375 12.554 2.92375C15.2071 2.92488 17.7005 3.95913 19.5759 5.83563C21.4512 7.71231 22.4831 10.207 22.4824 12.8603C22.48 18.3348 18.0245 22.7894 12.5502 22.7894H12.5463C10.7638 22.7884 9.01569 22.3097 7.49113 21.4052L7.12831 21.19L3.36912 22.1756L4.37291 18.5118Z" fill="url(#paint1_linear_253_2736)"/>
<path d="M9.56334 7.85763C9.33965 7.36048 9.10425 7.35044 8.89153 7.34172C8.71734 7.33422 8.51821 7.33479 8.31928 7.33479C8.12015 7.33479 7.79662 7.40969 7.52315 7.70829C7.2494 8.00716 6.47803 8.72941 6.47803 10.1984C6.47803 11.6673 7.548 13.0871 7.69715 13.2865C7.8465 13.4855 9.76275 16.5965 12.7976 17.7933C15.3199 18.7879 15.8332 18.5901 16.3806 18.5403C16.9281 18.4906 18.1472 17.8182 18.3959 17.121C18.6448 16.4238 18.6448 15.8263 18.5702 15.7014C18.4956 15.577 18.2964 15.5023 17.9978 15.353C17.6992 15.2038 16.2312 14.4813 15.9576 14.3817C15.6838 14.2821 15.4848 14.2324 15.2857 14.5314C15.0865 14.8299 14.5147 15.5023 14.3405 15.7014C14.1664 15.901 13.9921 15.9258 13.6936 15.7765C13.3948 15.6267 12.4332 15.3118 11.2924 14.2947C10.4047 13.5033 9.8055 12.5259 9.63131 12.2269C9.45712 11.9284 9.61265 11.7666 9.76237 11.6179C9.89653 11.4841 10.0611 11.2692 10.2105 11.0949C10.3594 10.9205 10.4091 10.7961 10.5086 10.597C10.6083 10.3977 10.5584 10.2233 10.4839 10.074C10.4091 9.92463 9.82884 8.44798 9.56334 7.85763Z" fill="white"/>
</g>
<defs>
<linearGradient id="paint0_linear_253_2736" x1="1159.35" y1="2328.62" x2="1159.35" y2="1.32361" gradientUnits="userSpaceOnUse">
<stop stop-color="#1FAF38"/>
<stop offset="1" stop-color="#60D669"/>
</linearGradient>
<linearGradient id="paint1_linear_253_2736" x1="1200.5" y1="2411.66" x2="1200.5" y2="0.90625" gradientUnits="userSpaceOnUse">
<stop stop-color="#F9F9F9"/>
<stop offset="1" stop-color="white"/>
</linearGradient>
<clipPath id="clip0_253_2736">
<rect width="24" height="24.1875" fill="white" transform="translate(0.5 0.90625)"/>
</clipPath>
</defs>
</svg>
