<svg width="17" height="16" viewBox="0 0 17 16" fill="none" xmlns="http://www.w3.org/2000/svg">
<path d="M13.3533 12.1465C13.3998 12.193 13.4366 12.2481 13.4617 12.3088C13.4869 12.3695 13.4998 12.4346 13.4998 12.5003C13.4998 12.566 13.4869 12.631 13.4617 12.6917C13.4366 12.7524 13.3998 12.8076 13.3533 12.854C13.3068 12.9005 13.2517 12.9373 13.191 12.9625C13.1303 12.9876 13.0652 13.0006 12.9995 13.0006C12.9338 13.0006 12.8688 12.9876 12.8081 12.9625C12.7474 12.9373 12.6923 12.9005 12.6458 12.854L8.49955 8.70715L4.3533 12.854C4.25948 12.9478 4.13223 13.0006 3.99955 13.0006C3.86686 13.0006 3.73962 12.9478 3.6458 12.854C3.55198 12.7602 3.49927 12.633 3.49927 12.5003C3.49927 12.3676 3.55198 12.2403 3.6458 12.1465L7.79267 8.00028L3.6458 3.85403C3.55198 3.76021 3.49927 3.63296 3.49927 3.50028C3.49927 3.3676 3.55198 3.24035 3.6458 3.14653C3.73962 3.05271 3.86686 3 3.99955 3C4.13223 3 4.25948 3.05271 4.3533 3.14653L8.49955 7.2934L12.6458 3.14653C12.7396 3.05271 12.8669 3 12.9995 3C13.1322 3 13.2595 3.05271 13.3533 3.14653C13.4471 3.24035 13.4998 3.3676 13.4998 3.50028C13.4998 3.63296 13.4471 3.76021 13.3533 3.85403L9.20642 8.00028L13.3533 12.1465Z" fill="#4F4F4D"/>
</svg>
