<svg width="81" height="34" viewBox="0 0 81 34" fill="none" xmlns="http://www.w3.org/2000/svg">
<path d="M76.6859 32.9939L64.7101 0.0217575L64.7018 0H64.4655L61.9993 6.77569L57.5097 19.1109L57.4992 19.1011C55.9431 17.7281 53.7479 16.8698 50.9831 16.5502L50.1398 16.4632L50.9764 16.3559C55.5358 15.5366 58.6006 12.6571 58.6006 9.18781C58.6006 4.43035 54.126 1.10966 47.7164 1.10966H34.3804V1.35049H38.2555V25.9331L28.8441 0.0217575L28.8359 0H28.5996L26.1334 6.77569L16.6215 32.9091L16.563 32.9159C16.4004 32.9359 16.2396 32.9519 16.0805 32.9639C15.8412 32.9826 15.6034 32.9939 15.3648 32.9939H5.75382L24.0229 1.35048L24.1587 1.11265H1.8149V10.9014H2.05199C2.094 6.13346 4.87075 1.35049 11.0057 1.35049H18.4071L0 33.231H24.7979V23.8526H24.5608C24.5286 28.0083 22.1727 31.9555 17.0499 32.8468L16.8871 32.8746L20.7885 22.151H31.7177L35.6558 32.9939H31.7709V33.231H47.0187V32.9939H43.1173V16.638H47.6189C52.2001 16.638 54.8275 18.6847 54.8275 22.2515V25.1528C54.8275 25.4724 54.8493 25.9398 54.8733 26.3307V26.345L52.4536 32.9924H49.2928V33.2295H55.8359V32.9924H52.7087L54.9123 26.9392C54.9168 26.9977 54.919 27.033 54.919 27.033L54.9798 27.5784L55.0383 27.9393C55.406 30.1714 56.2598 31.8122 57.575 32.8161L57.764 32.9534C58.7634 33.6481 60.0051 34 61.4569 34C63.3798 34 64.662 33.5206 65.7207 32.3922L65.5819 32.2616C64.6065 33.1619 63.788 33.5266 62.7624 33.5266C61.015 33.5266 60.1004 31.4071 60.1004 29.3168V25.2518C60.1097 24.2432 59.9518 23.24 59.633 22.283L59.5895 22.157V22.1525H67.5836L71.5218 32.9954H67.6369V33.2325H80.8319V32.9954L76.6859 32.9939ZM20.8755 21.9139L26.2595 7.12232L31.6314 21.9139H20.8755ZM43.1195 16.4002V1.35049H46.5558C51.1459 1.35049 53.5693 4.07922 53.5693 9.23883C53.5693 14.7263 52.1783 16.4002 47.6189 16.4002H43.1195ZM59.4964 21.9139L59.4732 21.8554C59.1179 20.9902 58.6008 20.2007 57.9494 19.5295L57.7243 19.3045L57.7003 19.2819L62.1224 7.12232L67.4943 21.9139H59.4964Z" fill="#F3F3F3"/>
</svg>
